<?xml version="1.0" encoding="utf-8"?>
<!-- Generator: Adobe Illustrator 28.2.0, SVG Export Plug-In . SVG Version: 6.00 Build 0)  -->
<svg version="1.1" id="Layer_2_00000169515702670434622840000006838239874680295093_"
	 xmlns="http://www.w3.org/2000/svg" xmlns:xlink="http://www.w3.org/1999/xlink" x="0px" y="0px" viewBox="0 0 536 333"
	 style="enable-background:new 0 0 536 333;" xml:space="preserve">
<style type="text/css">
	.st0{clip-path:url(#SVGID_00000057851804969740275820000004172602848850003336_);}
	.st1{fill:#13259A;}
	.st2{fill:#E0E0E0;}
	.st3{fill:#85DCD7;}
	.st4{opacity:0.8;fill:#FFFFFF;enable-background:new    ;}
	.st5{opacity:0.4;fill:#001E2B;enable-background:new    ;}
	.st6{fill:#FFFFFF;}
	.st7{fill:#001E2B;}
	.st8{fill:#FFBE9D;}
	.st9{fill:#EB996E;}
	.st10{opacity:0.3;fill:#001E2B;enable-background:new    ;}
</style>
<g id="Layer_1-2">
	<g>
		<defs>
			<rect id="SVGID_1_" width="536" height="333"/>
		</defs>
		<clipPath id="SVGID_00000175324425506912769210000011759325197346228909_">
			<use xlink:href="#SVGID_1_"  style="overflow:visible;"/>
		</clipPath>
		<g style="clip-path:url(#SVGID_00000175324425506912769210000011759325197346228909_);">
			<path class="st1" d="M343.1,322.9c3.8-2.1,8.7-2.2,12.5-0.2s6.6,6,7,10.4C354.7,333,346.8,331.1,343.1,322.9L343.1,322.9z
				 M352.4,314.7c5.4,1.8,11.5,0.6,15.9-2.9c4.4-3.5,6.9-9.3,6.4-14.9C364.6,298.9,355,303.2,352.4,314.7L352.4,314.7z"/>
			<path class="st2" d="M317.6,328.2c0,0,0.2-0.1,0.5-0.2c0.4-0.1,0.9-0.3,1.5-0.5c1.8-0.6,3.6-1.2,5.4-1.8
				c4.5-1.6,10.7-3.8,17.4-6.7c3.1-1.4,6.2-2.8,9.3-4.4c2.8-1.5,5.3-2.8,7.3-4.1c2-1.3,3.6-2.3,4.6-3.2c1-0.8,1.6-1.4,1.6-1.3
				c0,0-0.1,0.1-0.4,0.4s-0.6,0.6-1.1,1c-1,0.9-2.6,2-4.6,3.3c-2,1.3-4.5,2.7-7.3,4.2c-3,1.6-6.1,3-9.3,4.4
				c-5.7,2.5-11.5,4.7-17.5,6.6c-2.3,0.8-4.1,1.3-5.4,1.7c-0.6,0.2-1.1,0.3-1.5,0.4C317.8,328.2,317.6,328.2,317.6,328.2
				L317.6,328.2L317.6,328.2z"/>
			<path class="st2" d="M353.4,327.5c0,0.1-1-0.6-2.6-1.5c-2.1-1.1-4.3-2-6.5-2.6c-2.3-0.6-4.6-1-7-1.1c-1.8-0.1-2.9,0-2.9-0.1
				c0,0,0.3-0.1,0.8-0.1c0.5-0.1,1.2-0.1,2.2-0.1c1.8,0,4.4,0.2,7.1,1c2.7,0.7,5,1.8,6.6,2.8c0.8,0.5,1.4,0.9,1.8,1.2
				C353.2,327.3,353.4,327.5,353.4,327.5L353.4,327.5L353.4,327.5z"/>
			<path class="st1" d="M164.9,291.9c-1.9,5.1-1.1,11.2,2.1,15.6c3.2,4.4,8.8,7.1,14.2,6.8C179.7,304.4,175.9,294.9,164.9,291.9
				L164.9,291.9z"/>
			<path class="st2" d="M163.3,287c0.1,0,0.3,1.1,0.9,2.8c0.8,2.3,1.7,4.5,2.8,6.5c1.1,2.1,2.4,4.1,3.9,6c1.1,1.4,1.9,2.3,1.8,2.3
				c0,0-0.2-0.2-0.6-0.5c-0.4-0.4-0.9-0.9-1.5-1.6c-1.2-1.4-2.7-3.5-4-6c-1.1-2.1-2.1-4.4-2.7-6.7c-0.2-0.7-0.4-1.4-0.5-2.1
				C163.3,287.3,163.3,287.1,163.3,287L163.3,287z"/>
			<path class="st1" d="M6.7,92.2c-3,7.9-1.7,17.4,3.3,24.2c5,6.9,13.6,10.9,22.1,10.5C29.8,111.6,23.8,96.9,6.7,92.2L6.7,92.2z"/>
			<path class="st2" d="M4.3,84.7c0,0,0.2,0.4,0.4,1.2c0.2,0.8,0.5,1.9,1,3.2C6.8,92.6,8.2,96,10,99.3c1.8,3.2,3.8,6.3,6.1,9.2
				c0.7,0.9,1.4,1.7,2.1,2.6c0.5,0.6,0.8,0.9,0.8,1c0,0-0.3-0.3-0.9-0.8c-0.6-0.6-1.3-1.4-2.3-2.5c-1.8-2.2-4.1-5.4-6.2-9.2
				c-2.1-3.8-3.4-7.6-4.2-10.3c-0.4-1.4-0.7-2.5-0.8-3.3S4.3,84.7,4.3,84.7z"/>
			<path class="st1" d="M33.5,249.8c-4.3,3.4-6.6,9.1-6.1,14.6s4,10.5,8.8,13.1C39.9,268.1,41.4,258,33.5,249.8L33.5,249.8z"/>
			<path class="st1" d="M180.3,49.7c4.9,2.4,11,2.2,15.8-0.5c4.7-2.8,7.9-8,8.2-13.5C194.2,36.2,184.4,39,180.3,49.7L180.3,49.7z"/>
			<path class="st2" d="M175.3,50.7c0-0.1,1.1-0.2,2.9-0.6c2.3-0.5,4.6-1.2,6.8-2.1c2.2-0.9,4.3-2,6.3-3.3c1.6-1,2.5-1.7,2.5-1.6
				c0,0-0.2,0.2-0.6,0.5c-0.4,0.3-1,0.8-1.8,1.3c-1.5,1-3.7,2.3-6.3,3.4c-2.6,1.1-5.1,1.7-6.9,2c-0.9,0.2-1.6,0.3-2.2,0.3
				C175.6,50.7,175.3,50.8,175.3,50.7L175.3,50.7L175.3,50.7z"/>
			<path class="st1" d="M159.8,48.2c7.1-1.5,13.2-6.8,15.8-13.5s1.6-14.8-2.6-20.6C163.1,22.8,155.3,33.8,159.8,48.2L159.8,48.2z"/>
			<path class="st1" d="M224.7,319.3c1.5,2.9,4.5,5,7.8,5.4c3.3,0.4,6.7-1,8.8-3.5C236.3,317.8,230.6,315.6,224.7,319.3L224.7,319.3
				L224.7,319.3z"/>
			<path class="st2" d="M221.9,318c0.1-0.1,2.4,1.3,5.7,2.1c3.2,0.9,6,0.8,6,0.9c0,0-0.7,0.1-1.8,0.1c-1.1,0-2.6-0.2-4.3-0.6
				c-1.4-0.4-2.8-0.9-4.1-1.5C222.4,318.4,221.9,318,221.9,318L221.9,318L221.9,318z"/>
			<path class="st1" d="M298.1,35.2c2,2.6,5.4,4.1,8.7,3.8c3.3-0.3,6.4-2.3,8-5.2C309.1,31.5,303.1,30.5,298.1,35.2L298.1,35.2z"/>
			<path class="st2" d="M295.1,34.5c0-0.1,2.6,0.8,6,1c3.4,0.2,6-0.4,6.1-0.3c0,0-0.6,0.3-1.7,0.5c-1.1,0.2-2.6,0.3-4.3,0.2
				c-1.5-0.1-2.9-0.3-4.3-0.7C295.7,34.8,295,34.5,295.1,34.5L295.1,34.5z"/>
			<path class="st1" d="M488.1,59.5c5.3,1.5,11.3,0.1,15.4-3.5c4.1-3.6,6.2-9.4,5.5-14.8C499.2,43.6,490.2,48.3,488.1,59.5z"/>
			<path class="st2" d="M483.4,61.5c0-0.1,1-0.4,2.7-1.2c2.2-1,4.3-2.1,6.3-3.4c2-1.3,3.9-2.8,5.6-4.4c1.3-1.2,2.1-2.1,2.1-2
				c0,0-0.1,0.2-0.5,0.7c-0.3,0.4-0.8,1-1.5,1.6c-1.7,1.7-3.6,3.2-5.6,4.6c-2.4,1.5-4.7,2.7-6.4,3.3c-0.7,0.3-1.4,0.5-2.1,0.7
				C483.7,61.5,483.4,61.6,483.4,61.5L483.4,61.5L483.4,61.5z"/>
			<path class="st1" d="M506.9,300.7c9.3-2.1,17.3-9.2,20.6-18.1c3.3-8.9,1.8-19.5-3.8-27.2C510.6,267.2,500.6,281.8,506.9,300.7z"
				/>
			<path class="st2" d="M501.3,307.7c0,0,0.3-0.4,0.9-1.1c0.8-0.9,1.6-1.9,2.4-2.9c1.2-1.5,2.3-3,3.3-4.5c1.3-1.9,2.5-3.9,3.5-5.9
				c1.1-2,2.1-4.1,2.9-6.2c0.7-1.7,1.4-3.5,1.9-5.2c0.4-1.2,0.8-2.4,1.1-3.6c0.2-0.9,0.4-1.3,0.4-1.3c0,0-0.1,0.5-0.2,1.4
				c-0.2,0.9-0.5,2.1-1,3.7s-1.1,3.3-1.9,5.3c-0.9,2.1-1.8,4.2-2.9,6.2c-1.1,2-2.3,4-3.6,5.9c-1.2,1.7-2.4,3.3-3.4,4.5
				c-1,1.2-1.9,2.2-2.5,2.8C501.7,307.3,501.3,307.7,501.3,307.7L501.3,307.7L501.3,307.7z"/>
			<path class="st3" d="M399.5,200.9c-5-27.9-28.9-52.2-57.2-54.6c-15.4-1.2-30.9,3.6-46.2,1.8c-12.9-1.6-25.1-8-33.6-17.7
				c-12.6-14.4-16.9-34.9-30.3-48.6c-18.5-18.9-50.7-19.2-73.2-5.3c-22.5,13.9-36.1,39-42.3,64.7l-0.2,7.8
				c-1.3,26.6,5.7,57.6,21.1,81.3c15.7,24.1,25.9,34,54.5,51.3c24.2,14.7,71.7,21.1,100,21.8c28.3,0.7,57.4-7.8,78.7-26.5
				C392.1,258.3,404.5,228.8,399.5,200.9L399.5,200.9L399.5,200.9z"/>
			<path class="st4" d="M399.5,200.9c-5-27.9-28.9-52.2-57.2-54.6c-15.4-1.2-30.9,3.6-46.2,1.8c-12.9-1.6-25.1-8-33.6-17.7
				c-12.6-14.4-16.9-34.9-30.3-48.6c-18.5-18.9-50.7-19.2-73.2-5.3c-22.5,13.9-36.1,39-42.3,64.7l-0.2,7.8
				c-1.3,26.6,5.7,57.6,21.1,81.3c15.7,24.1,25.9,34,54.5,51.3c24.2,14.7,71.7,21.1,100,21.8c28.3,0.7,57.4-7.8,78.7-26.5
				C392.1,258.3,404.5,228.8,399.5,200.9L399.5,200.9L399.5,200.9z"/>
			<path class="st3" d="M427.2,300.5c1.1-7.5-4.1-14.4-11.5-15.5s-14.4,4.1-15.5,11.5s4.1,14.4,11.5,15.5S426.1,308,427.2,300.5z"/>
			<path class="st4" d="M427.2,300.5c1.1-7.5-4.1-14.4-11.5-15.5s-14.4,4.1-15.5,11.5s4.1,14.4,11.5,15.5S426.1,308,427.2,300.5z"/>
			<path class="st3" d="M317.9,193.5c0.3,27.2-5.7,48.1-17.8,62.5s-28.8,21.7-49.9,21.9c-21.2,0.2-38.1-6.8-50.6-21
				c-12.5-14.2-18.9-34.9-19.2-62.1l-0.5-47.9c-0.3-27.2,5.7-48,17.8-62.5c12.1-14.5,28.8-21.9,50-22.1c21.1-0.2,37.9,6.8,50.4,21.1
				s18.9,35,19.2,62.1L317.9,193.5L317.9,193.5L317.9,193.5z M282.4,140.6c-0.2-17.2-3.2-29.8-9-38s-14.3-12.2-25.3-12.1
				c-11,0.1-19.4,4.3-25,12.6s-8.4,21-8.2,38.2l0.6,58.2c0.2,17.3,3.2,30,9.1,38.2c5.9,8.2,14.3,12.3,25.4,12.2
				c11-0.1,19.3-4.3,24.9-12.6c5.6-8.3,8.3-21.1,8.1-38.5L282.4,140.6L282.4,140.6L282.4,140.6z"/>
			<path class="st5" d="M317.9,193.5c0.3,27.2-5.7,48.1-17.8,62.5s-28.8,21.7-49.9,21.9c-21.2,0.2-38.1-6.8-50.6-21
				c-12.5-14.2-18.9-34.9-19.2-62.1l-0.5-47.9c-0.3-27.2,5.7-48,17.8-62.5c12.1-14.5,28.8-21.9,50-22.1c21.1-0.2,37.9,6.8,50.4,21.1
				s18.9,35,19.2,62.1L317.9,193.5L317.9,193.5L317.9,193.5z M282.4,140.6c-0.2-17.2-3.2-29.8-9-38s-14.3-12.2-25.3-12.1
				c-11,0.1-19.4,4.3-25,12.6s-8.4,21-8.2,38.2l0.6,58.2c0.2,17.3,3.2,30,9.1,38.2c5.9,8.2,14.3,12.3,25.4,12.2
				c11-0.1,19.3-4.3,24.9-12.6c5.6-8.3,8.3-21.1,8.1-38.5L282.4,140.6L282.4,140.6L282.4,140.6z"/>
			<path class="st3" d="M338.1,193.4c0.3,27.2-5.7,48.1-17.8,62.5s-28.8,21.7-49.9,21.9c-21.2,0.2-38.1-6.8-50.6-21
				c-12.5-14.2-18.9-34.9-19.2-62.1l-0.4-47.9c-0.3-27.2,5.7-48,17.8-62.5c12.1-14.5,28.8-21.9,50-22.1c21.1-0.2,37.9,6.8,50.4,21.1
				c12.5,14.3,18.9,35,19.2,62.1L338.1,193.4L338.1,193.4L338.1,193.4z M302.6,140.4c-0.2-17.2-3.2-29.8-9-38s-14.3-12.2-25.3-12.1
				c-11,0.1-19.4,4.3-25,12.6c-5.6,8.3-8.4,21-8.2,38.2l0.6,58.2c0.2,17.3,3.2,30,9.1,38.2s14.3,12.3,25.4,12.2
				c11-0.1,19.3-4.3,24.9-12.6c5.6-8.3,8.3-21.1,8.1-38.5L302.6,140.4L302.6,140.4L302.6,140.4z"/>
			<path class="st3" d="M200.3,149.6c0,0.1-4.6,2-10.4,4.1c-5.8,2.2-10.6,3.9-10.6,3.8c0-0.1,4.6-2,10.4-4.1
				C195.5,151.2,200.3,149.5,200.3,149.6L200.3,149.6z M201.5,168.5c0,0.1-4.6,2-10.4,4.1c-5.8,2.2-10.6,3.9-10.6,3.8
				c0-0.1,4.6-2,10.4-4.1C196.7,170.1,201.4,168.4,201.5,168.5L201.5,168.5z M202.7,187.5c0,0.1-4.6,2-10.4,4.1
				c-5.8,2.2-10.6,3.9-10.6,3.8c0-0.1,4.6-2,10.4-4.1C197.9,189.1,202.6,187.4,202.7,187.5L202.7,187.5z M203.8,206.4
				c0,0.1-4.6,2-10.4,4.1c-5.8,2.2-10.6,3.9-10.6,3.8c0-0.1,4.6-2,10.4-4.1C199,208,203.8,206.3,203.8,206.4L203.8,206.4z
				 M205,225.4c0,0-0.2,0.1-0.7,0.4c-0.5,0.2-1.2,0.5-2,0.8c-2.2,0.9-4.5,1.8-6.8,2.6c-2.3,0.9-4.5,1.7-6.8,2.5
				c-0.9,0.3-1.6,0.6-2.1,0.7s-0.8,0.2-0.8,0.2c0,0,0.2-0.1,0.7-0.4s1.2-0.5,2-0.8c2.2-0.9,4.5-1.8,6.8-2.6c2.2-0.9,4.5-1.7,6.8-2.5
				c0.9-0.3,1.6-0.6,2.1-0.7C204.7,225.4,205,225.3,205,225.4L205,225.4z M210.4,242.7c0,0.1-0.9,0.4-2.4,1.1
				c-1.9,0.8-3.9,1.5-5.9,2.3c-2.3,0.9-4.4,1.6-5.9,2.2c-1.5,0.5-2.5,0.8-2.5,0.8s0.9-0.4,2.4-1.1c1.9-0.8,3.9-1.5,5.9-2.3
				c2.3-0.9,4.4-1.6,5.9-2.2C209.4,242.9,210.4,242.6,210.4,242.7L210.4,242.7z M222,258.6c0,0.1-0.8,0.4-2.1,1
				c-3.5,1.4-7,2.7-10.5,4c-1.4,0.5-2.2,0.7-2.2,0.7c0,0,0.8-0.4,2.1-1c3.5-1.4,7-2.7,10.5-4C221.1,258.8,221.9,258.5,222,258.6
				L222,258.6z M241.2,269c0,0.1-0.8,0.4-2.1,1c-1.3,0.5-3.2,1.3-5.2,2c-1.8,0.7-3.5,1.3-5.3,1.9c-1.4,0.5-2.2,0.7-2.2,0.7
				s0.8-0.4,2.1-1c1.3-0.5,3.2-1.3,5.2-2c1.8-0.7,3.5-1.3,5.3-1.9C240.3,269.2,241.2,268.9,241.2,269z M299.2,228.6
				c0,0.1-6,2.9-13.4,6.3s-13.5,6-13.6,5.9c0-0.1,6-2.9,13.4-6.3C293.1,231.1,299.2,228.5,299.2,228.6L299.2,228.6L299.2,228.6z
				 M303.1,212.4c0,0.1-4.9,2.4-11.1,5.2s-11.2,4.9-11.2,4.8c0-0.1,4.9-2.4,11.1-5.2C298.1,214.4,303.1,212.3,303.1,212.4z
				 M305,194.1c0,0.1-4.9,2.4-11.1,5.2s-11.2,4.9-11.2,4.8c0-0.1,4.9-2.4,11.1-5.2C299.9,196.2,304.9,194,305,194.1L305,194.1
				L305,194.1z M306.8,175.9c0,0.1-4.9,2.4-11.1,5.2s-11.2,4.9-11.2,4.8c0-0.1,4.9-2.4,11.1-5.2C301.7,178,306.7,175.8,306.8,175.9z
				 M308.6,157.7c0,0.1-4.9,2.4-11.1,5.2s-11.2,4.9-11.2,4.8c0-0.1,4.9-2.4,11.1-5.2C303.5,159.7,308.5,157.6,308.6,157.7
				L308.6,157.7z M305,141.4c0,0.1-4.9,2.4-11.1,5.2s-11.2,4.9-11.2,4.8c0-0.1,4.9-2.4,11.1-5.2C299.9,143.5,304.9,141.3,305,141.4
				L305,141.4L305,141.4z M305,124c0,0.1-4.9,2.4-11.1,5.2c-6.2,2.8-11.2,4.9-11.2,4.8c0-0.1,4.9-2.4,11.1-5.2
				C299.9,126,304.9,123.9,305,124L305,124L305,124z M303.1,107.5c0,0.1-4.9,2.4-11.1,5.2s-11.2,4.9-11.2,4.8
				c0-0.1,4.9-2.4,11.1-5.2C298.1,109.6,303.1,107.4,303.1,107.5z M287.5,96.1c0,0.1-3,1.6-6.7,3.2c-3.8,1.7-6.8,3-6.9,2.9
				c0-0.1,3-1.6,6.7-3.2C284.4,97.2,287.5,95.9,287.5,96.1z M279.2,89c0,0.1-3,1.6-6.7,3.2c-3.8,1.7-6.8,3-6.9,2.9
				c0-0.1,3-1.6,6.7-3.2C276,90.2,279.1,88.9,279.2,89z M201.2,126.6c0,0.1-4.6,2-10.4,4.1c-5.8,2.2-10.6,3.9-10.6,3.8
				c0-0.1,4.6-2,10.4-4.1C196.4,128.2,201.2,126.5,201.2,126.6L201.2,126.6z M207.1,103c0,0.1-5,2.1-11.3,4.5s-11.4,4.2-11.5,4.1
				c0-0.1,5-2.1,11.3-4.5S207,102.9,207.1,103z M222.3,79.7c0,0.1-6.4,2.6-14.4,5.6s-14.5,5.3-14.5,5.2c0-0.1,6.4-2.6,14.4-5.6
				C215.7,81.9,222.2,79.6,222.3,79.7L222.3,79.7z"/>
			<path class="st6" d="M334.6,228.8c0,0-0.1,0-0.3-0.1c-0.2-0.1-0.5-0.2-1-0.4c-0.4-0.2-1-0.3-1.6-0.4c-0.6-0.1-1.4-0.3-2.2-0.3
				c-3.4-0.2-8.4,1-13.3,4.7c-2.5,1.8-4.8,4.2-7.1,7c-2.3,2.8-4.5,5.9-7,9.1c-2.5,3.2-5.4,6.4-9.1,8.8c-3.7,2.5-8,4.3-12.6,5.1
				c-4.6,0.9-9.3,0.6-13.6-0.5c-4.3-1-8.2-2.7-11.9-4.4c-3.7-1.7-7.1-3.4-10.4-4.9c-3.3-1.5-6.5-2.5-9.4-3.2c-3-0.7-5.7-1-8.1-0.9
				c-2.1,0-4.1,0.3-6.1,0.8c-1.6,0.5-2.9,1-3.6,1.4c-0.4,0.2-0.7,0.4-0.9,0.5c-0.2,0.1-0.3,0.2-0.3,0.1c0,0,0.1-0.1,0.3-0.2
				c0.2-0.1,0.5-0.3,0.9-0.5c0.8-0.4,2-1,3.6-1.5c2-0.6,4.1-0.9,6.2-0.9c2.4-0.1,5.2,0.2,8.2,0.9c3,0.7,6.2,1.7,9.5,3.2
				c3.3,1.4,6.8,3.1,10.4,4.8c3.7,1.7,7.6,3.4,11.8,4.4c4.2,1,8.9,1.3,13.4,0.4c4.6-0.8,8.8-2.6,12.5-5c3.6-2.4,6.5-5.6,9-8.7
				c2.5-3.1,4.8-6.3,7-9.1c2.3-2.8,4.6-5.2,7.2-7c5-3.7,10.1-4.9,13.5-4.6c0.9,0,1.6,0.2,2.3,0.3c0.6,0.2,1.2,0.3,1.6,0.5
				c0.4,0.2,0.7,0.3,0.9,0.4C334.5,228.8,334.6,228.9,334.6,228.8L334.6,228.8L334.6,228.8z M339.6,176c0,0-0.6,0.1-1.5,0.4
				c-1,0.3-2.3,1-3.8,2c-1.5,1.1-3.1,2.5-5.1,4c-2.1,1.6-4.4,3-6.8,4.2c-5.1,2.5-10.3,3.4-14,3.6c-0.9,0.1-1.8,0.1-2.5,0.1
				c-0.7,0-1.4,0-1.9-0.1l-1.2-0.1c-0.3,0-0.4-0.1-0.4-0.1s0.1,0,0.4,0c0.3,0,0.7,0,1.2,0c0.5,0,1.2,0,1.9,0c0.7,0,1.6,0,2.5-0.1
				c3.7-0.2,8.7-1.2,13.8-3.7c2.4-1.1,4.6-2.5,6.7-4.1c1.9-1.5,3.6-2.9,5.1-4c1.5-1.1,2.9-1.7,3.9-1.9c0.5-0.1,0.9-0.2,1.2-0.2
				C339.5,176,339.6,176,339.6,176L339.6,176L339.6,176z M236.3,194.4c0,0-0.1,0-0.4-0.1s-0.7-0.1-1.2-0.3c-1.5-0.4-2.9-1.1-4.2-1.9
				c-1.7-1-3.6-2.4-5.5-4c-2-1.6-4.1-3.5-6.5-5.2c-2.4-1.7-5-2.9-7.5-3.4c-2.2-0.6-4.5-0.8-6.7-0.6c-1.9,0.1-3.5,0.4-4.5,0.7
				c-1.1,0.3-1.6,0.5-1.6,0.4c0,0,0.1-0.1,0.4-0.2c0.3-0.1,0.7-0.3,1.2-0.4c1.5-0.4,3-0.7,4.6-0.8c2.3-0.2,4.6,0,6.8,0.6
				c2.5,0.6,5.2,1.8,7.6,3.5c2.5,1.7,4.6,3.6,6.6,5.2c2,1.7,3.8,3.1,5.4,4.1c1.3,0.8,2.7,1.5,4.1,1.9
				C235.7,194.2,236.3,194.3,236.3,194.4L236.3,194.4L236.3,194.4z M236.4,119.6c0,0-0.5,0.2-1.3,0.5c-0.4,0.2-1,0.3-1.6,0.5
				c-0.6,0.2-1.3,0.4-2.1,0.5c-0.8,0.2-1.7,0.3-2.6,0.5c-0.9,0.2-1.9,0.2-3,0.3c-2.3,0.2-4.6,0.1-7-0.1c-2.3-0.2-4.6-0.6-6.9-1.2
				c-1-0.3-2-0.6-2.9-0.9c-0.8-0.3-1.7-0.6-2.5-0.9c-0.8-0.3-1.4-0.6-2-0.9c-0.5-0.2-1-0.5-1.5-0.8c-0.8-0.4-1.2-0.7-1.2-0.7
				c0,0,0.5,0.2,1.3,0.6c0.4,0.2,0.9,0.4,1.5,0.7c0.6,0.2,1.2,0.6,2,0.8c0.8,0.3,1.6,0.6,2.5,0.9c0.9,0.3,1.9,0.6,2.9,0.8
				c2.2,0.6,4.5,0.9,6.8,1.2c2.4,0.2,4.8,0.2,6.9,0.1c1.1-0.1,2.1-0.1,3-0.3c0.9-0.1,1.8-0.3,2.6-0.4c0.8-0.1,1.5-0.3,2.1-0.4
				c0.6-0.1,1.2-0.3,1.6-0.4C236,119.7,236.4,119.5,236.4,119.6L236.4,119.6L236.4,119.6z M335.1,119.3c0,0-0.1-0.1-0.3-0.2
				c-0.3-0.2-0.6-0.3-0.9-0.5c-0.5-0.3-1-0.6-1.5-0.8c-0.6-0.3-1.2-0.7-2-0.9c-0.4-0.2-0.8-0.3-1.2-0.5s-0.9-0.3-1.3-0.4
				c-0.9-0.3-1.9-0.6-3-0.8c-2.3-0.5-4.6-0.8-7-0.8c-2.5,0-4.9,0.3-7,0.7c-1,0.2-2.1,0.5-3,0.8c-0.5,0.2-0.9,0.3-1.3,0.4
				c-0.4,0.2-0.8,0.3-1.2,0.5c-0.8,0.3-1.4,0.6-2,0.9c-0.6,0.3-1.1,0.5-1.5,0.8c-0.4,0.2-0.7,0.4-0.9,0.5c-0.2,0.1-0.3,0.2-0.3,0.2
				s0.1-0.1,0.3-0.2c0.2-0.2,0.5-0.3,0.9-0.6c0.4-0.2,0.9-0.6,1.5-0.8c0.6-0.3,1.2-0.7,2-1c0.4-0.2,0.8-0.3,1.2-0.5s0.9-0.3,1.3-0.5
				c0.9-0.3,1.9-0.6,3-0.8c2.3-0.5,4.7-0.7,7.1-0.7c2.5,0,4.9,0.4,7.1,0.9c1.1,0.3,2.1,0.5,3,0.9c0.5,0.2,0.9,0.3,1.3,0.5
				s0.8,0.4,1.2,0.5c0.8,0.3,1.4,0.7,2,1c0.6,0.3,1.1,0.6,1.4,0.9c0.4,0.2,0.6,0.4,0.9,0.6C335,119.2,335.1,119.3,335.1,119.3
				L335.1,119.3L335.1,119.3z M286.8,65.6c0,0-0.2,0.1-0.6,0.3c-0.4,0.2-1,0.5-1.7,0.9c-2.1,1.1-4.1,2.2-6.2,3.2
				c-5.3,2.6-12.8,6.2-21.6,8.4c-4.4,1.1-8.7,1.7-12.6,1.8c-3.9,0.1-7.5-0.3-10.4-0.9s-5.2-1.4-6.7-2.1c-0.8-0.3-1.3-0.6-1.7-0.8
				c-0.4-0.2-0.6-0.3-0.6-0.3c0,0,0.2,0.1,0.6,0.2c0.4,0.2,1,0.4,1.8,0.7c1.5,0.6,3.8,1.3,6.7,1.9c2.9,0.6,6.4,0.9,10.3,0.8
				c3.9-0.1,8.2-0.7,12.6-1.8c8.8-2.2,16.2-5.8,21.5-8.3c2.6-1.3,4.8-2.3,6.3-3.1c0.7-0.3,1.3-0.6,1.7-0.8
				C286.6,65.7,286.8,65.6,286.8,65.6L286.8,65.6L286.8,65.6z"/>
			<path class="st3" d="M127.9,203.5l26.5,1.1l-1.2,28l-26.4-1.1l-2,46.6l-34.8-1.5l2-46.6l-89.8-3.9l0.1-21.4L97.9,67.2l35.9,1.6
				L127.9,203.5L127.9,203.5L127.9,203.5z M36.9,199.5l56.2,2.4l3.7-85l-0.8-0.3l-3.1,6.1L36.9,199.5L36.9,199.5z"/>
			<path class="st5" d="M127.9,203.5l26.5,1.1l-1.2,28l-26.4-1.1l-2,46.6l-34.8-1.5l2-46.6l-89.8-3.9l0.1-21.4L97.9,67.2l35.9,1.6
				L127.9,203.5L127.9,203.5L127.9,203.5z M36.9,199.5l56.2,2.4l3.7-85l-0.8-0.3l-3.1,6.1L36.9,199.5L36.9,199.5z"/>
			<path class="st3" d="M150.1,204.4l26.4,1.2l-1.2,28l-26.4-1.2l-2,46.6l-34.8-1.5l2-46.6L24.2,227l0.1-21.4L120,68.2l35.9,1.6
				L150.1,204.4L150.1,204.4z M59,200.5l56.2,2.4l3.7-85l-0.8-0.3l-3.1,6.1L59,200.5C59,200.5,59,200.5,59,200.5z"/>
			<path class="st3" d="M24.7,209.7c0,0-0.3,0.2-0.9,0.5s-1.4,0.7-2.4,1.2c-2.7,1.2-5.3,2.4-8.1,3.6c-2.7,1.1-5.4,2.2-8.2,3.3
				c-0.8,0.3-1.7,0.6-2.5,0.9c-0.6,0.2-0.9,0.3-0.9,0.3c0,0,0.3-0.2,0.9-0.4c0.7-0.3,1.5-0.6,2.5-1c2.2-0.9,5-2.1,8.1-3.4
				c3.1-1.3,5.9-2.5,8.1-3.5l2.5-1C24.4,209.8,24.7,209.7,24.7,209.7L24.7,209.7L24.7,209.7z M37.6,186.1c0,0-0.4,0.2-1.2,0.6
				c-0.8,0.4-1.9,0.9-3.3,1.6c-2.8,1.3-6.7,3-11.1,4.9c-4.4,1.8-8.3,3.5-11.2,4.6c-1.1,0.4-2.3,0.9-3.4,1.3
				c-0.8,0.3-1.3,0.4-1.3,0.4c0,0,0.4-0.2,1.2-0.6c0.9-0.4,2-0.8,3.4-1.4c2.9-1.2,6.8-2.9,11.2-4.7c4.3-1.8,8.2-3.5,11.1-4.7
				c1.4-0.6,2.5-1.1,3.4-1.4C37.2,186.2,37.6,186,37.6,186.1L37.6,186.1z M53.3,164.9c0,0-0.4,0.2-1.2,0.6s-2,0.9-3.5,1.6
				c-2.9,1.3-7,3-11.6,4.9c-3.9,1.6-7.8,3.1-11.7,4.6c-1.5,0.6-2.7,1-3.6,1.3c-0.9,0.3-1.3,0.4-1.3,0.4c0,0,0.4-0.2,1.3-0.6
				c0.9-0.4,2.1-0.8,3.5-1.4c3-1.2,7.1-2.9,11.6-4.7c4.5-1.8,8.6-3.5,11.6-4.7l3.5-1.4C52.8,165.1,53.3,164.9,53.3,164.9L53.3,164.9
				L53.3,164.9z M116.3,189.3c0,0-0.3,0.2-0.9,0.5c-0.6,0.3-1.4,0.7-2.4,1.1c-2,0.9-4.9,2.1-8.1,3.4c-2.7,1.1-5.4,2.1-8.2,3.1
				c-1.1,0.4-1.9,0.7-2.5,0.9c-0.6,0.2-0.9,0.3-0.9,0.3c0,0,0.3-0.2,0.9-0.4c0.7-0.3,1.5-0.6,2.5-1c2.2-0.9,5-2,8.1-3.2
				c3.1-1.3,5.9-2.4,8.1-3.3c1-0.4,1.8-0.7,2.5-1C115.9,189.4,116.3,189.3,116.3,189.3L116.3,189.3z M113.7,232.8
				c0,0-0.3,0.2-0.8,0.5c-0.8,0.4-1.6,0.8-2.3,1.1c-2.6,1.2-5.2,2.3-7.8,3.4c-2.6,1.1-5.3,2.1-7.9,3.1c-1,0.4-1.9,0.7-2.4,0.9
				c-0.6,0.2-0.9,0.3-0.9,0.3c0,0,0.3-0.2,0.9-0.4c0.6-0.3,1.4-0.6,2.4-1c2.1-0.9,4.8-2,7.9-3.2c3-1.3,5.8-2.4,7.9-3.3
				c0.9-0.4,1.7-0.7,2.4-1C113.4,232.9,113.7,232.8,113.7,232.8L113.7,232.8z M113.3,248c0,0-0.3,0.2-0.8,0.5s-1.3,0.7-2.3,1.1
				c-2.6,1.2-5.2,2.3-7.8,3.4c-2.6,1.1-5.3,2.1-7.9,3.1c-1,0.4-1.9,0.7-2.4,0.9s-0.9,0.3-0.9,0.3c0,0,0.3-0.2,0.9-0.4
				c0.6-0.3,1.4-0.6,2.4-1c2.1-0.9,4.8-2,7.9-3.2c3-1.3,5.8-2.4,7.9-3.3c0.9-0.4,1.7-0.7,2.4-1C113,248.1,113.3,248,113.3,248
				L113.3,248L113.3,248z M113,263.3c0,0-0.3,0.2-0.8,0.5c-0.8,0.4-1.6,0.8-2.3,1.1c-2.6,1.2-5.2,2.3-7.8,3.4
				c-2.6,1.1-5.3,2.1-7.9,3.1c-1,0.4-1.9,0.7-2.4,0.9s-0.9,0.3-0.9,0.3c0,0,0.3-0.2,0.8-0.4c0.6-0.3,1.4-0.6,2.4-1
				c2.1-0.9,4.8-2,7.9-3.2c3-1.3,5.8-2.4,7.9-3.3c0.9-0.4,1.7-0.7,2.4-1C112.6,263.4,113,263.2,113,263.3L113,263.3L113,263.3z
				 M116.7,173.2c0,0-0.3,0.2-0.9,0.5c-0.6,0.3-1.4,0.7-2.4,1.1c-2.7,1.2-5.3,2.4-8.1,3.4c-2.7,1.1-5.4,2.1-8.2,3.1
				c-1.1,0.4-1.9,0.7-2.5,0.9c-0.6,0.2-0.9,0.3-0.9,0.3c0,0,0.3-0.2,0.9-0.4c0.7-0.3,1.5-0.6,2.5-1c2.2-0.9,5-2,8.1-3.2
				c3.1-1.3,5.9-2.4,8.1-3.3c1-0.4,1.8-0.7,2.5-1C116.4,173.3,116.7,173.2,116.7,173.2L116.7,173.2L116.7,173.2z M117.1,157.1
				c0,0-0.3,0.2-0.9,0.5c-0.6,0.3-1.4,0.7-2.4,1.1c-2,0.9-4.9,2.1-8.1,3.4c-2.7,1.1-5.4,2.1-8.2,3.1c-1.1,0.4-1.9,0.7-2.5,0.9
				c-0.6,0.2-0.9,0.3-0.9,0.3c0,0,0.3-0.2,0.9-0.4c0.7-0.3,1.5-0.6,2.5-1c2.2-0.9,5-2,8.1-3.2c3.1-1.3,5.9-2.4,8.1-3.3
				c1-0.4,1.8-0.7,2.5-1C116.8,157.2,117.1,157.1,117.1,157.1L117.1,157.1L117.1,157.1z M117.5,141c0,0-0.3,0.2-0.8,0.4
				c-0.5,0.3-1.3,0.6-2.3,1.1c-2.5,1.1-5.1,2.2-7.7,3.3c-2.6,1.1-5.2,2-7.8,3c-0.8,0.3-1.6,0.6-2.4,0.8c-0.6,0.2-0.9,0.3-0.9,0.2
				c0,0,0.3-0.2,0.8-0.4c0.6-0.2,1.4-0.6,2.3-0.9c2.1-0.8,4.8-1.9,7.8-3.1c3-1.2,5.7-2.3,7.7-3.2c0.9-0.4,1.7-0.7,2.3-0.9
				C117.2,141.1,117.5,141,117.5,141L117.5,141L117.5,141z M119.3,126c0,0.1-1.7,0.9-4,1.7c-2.2,0.8-4.1,1.4-4.1,1.3
				c0-0.1,1.7-0.9,4-1.7C117.4,126.5,119.3,125.9,119.3,126z M69,143c0,0-0.4,0.2-1.2,0.6c-0.8,0.4-2,0.9-3.5,1.6
				c-2.9,1.3-7,3-11.6,4.9c-3.9,1.6-7.8,3.1-11.7,4.6c-1.5,0.6-2.7,1-3.6,1.3c-0.8,0.3-1.3,0.4-1.3,0.4c0,0,0.4-0.2,1.3-0.6
				c0.9-0.4,2.1-0.8,3.5-1.4c3-1.2,7.1-2.9,11.6-4.7c4.5-1.8,8.6-3.5,11.6-4.7l3.5-1.4C68.5,143.2,69,143,69,143L69,143L69,143z
				 M84.7,121.1c0,0-0.4,0.2-1.2,0.6s-2,0.9-3.5,1.6c-2.9,1.3-7,3-11.6,4.8c-3.9,1.6-7.8,3.1-11.7,4.6c-1.5,0.6-2.7,1-3.6,1.3
				c-0.8,0.3-1.3,0.4-1.3,0.4c0,0,0.4-0.2,1.3-0.6c0.9-0.4,2.1-0.8,3.5-1.4c3-1.2,7.1-2.9,11.6-4.7c4.5-1.8,8.6-3.5,11.6-4.7
				l3.5-1.4C84.2,121.3,84.7,121.1,84.7,121.1L84.7,121.1L84.7,121.1z M99.2,99.2c0,0-0.4,0.2-1.2,0.6s-2,0.9-3.5,1.6
				c-2.9,1.3-7,3-11.6,4.8c-3.9,1.6-7.8,3.1-11.7,4.6c-1.5,0.6-2.7,1-3.6,1.3c-0.8,0.3-1.3,0.4-1.3,0.4c0,0,0.4-0.2,1.3-0.6
				c0.9-0.4,2.1-0.8,3.5-1.4c3-1.2,7.1-2.9,11.7-4.7c4.5-1.8,8.6-3.5,11.6-4.7l3.5-1.4C98.7,99.4,99.2,99.2,99.2,99.2L99.2,99.2
				L99.2,99.2z M114.3,78.1c0,0-0.4,0.2-1.2,0.6s-2,0.9-3.5,1.6c-2.9,1.3-7,3-11.6,4.8c-3.9,1.6-7.8,3.1-11.7,4.6
				c-1.5,0.6-2.7,1-3.6,1.3c-0.8,0.3-1.3,0.4-1.3,0.4c0,0,0.4-0.2,1.3-0.6c0.9-0.4,2.1-0.8,3.5-1.4c3-1.2,7.1-2.9,11.7-4.7l11.6-4.7
				l3.5-1.4C113.8,78.3,114.3,78.1,114.3,78.1L114.3,78.1L114.3,78.1z"/>
			<path class="st6" d="M154.4,110.3c0,0-0.1,0.2-0.5,0.5c-0.3,0.3-0.8,0.8-1.4,1.4c-1.3,1.2-3.3,2.7-6.1,4
				c-2.8,1.3-6.4,2.3-10.6,2.4c-2.2,0-4.3-0.2-6.4-0.7c-2.2-0.5-4.3-1.4-6.5-2.4c-4.3-2.1-8-4.5-11.7-6.2c-3.7-1.7-7.3-2.6-10.4-2.7
				c-3.1-0.1-5.5,0.6-7.1,1.3c-0.8,0.4-1.3,0.7-1.7,1c-0.4,0.2-0.6,0.4-0.6,0.4c0,0,0.2-0.2,0.5-0.4c0.3-0.3,0.9-0.7,1.7-1.1
				c1.5-0.8,4-1.5,7.1-1.5s6.8,0.9,10.5,2.7c3.7,1.7,7.5,4.1,11.8,6.2c2.1,1,4.2,1.9,6.4,2.4c2.1,0.5,4.3,0.8,6.3,0.7
				c4.1-0.1,7.7-1,10.4-2.3c2.2-1,4.3-2.3,6.2-3.8c0.7-0.5,1.1-1,1.5-1.3C154.1,110.5,154.3,110.3,154.4,110.3L154.4,110.3
				L154.4,110.3z M143.3,71.2c0,0-0.4,0.2-1,0.6c-0.7,0.4-1.6,0.8-2.9,1.3s-2.7,1.1-4.4,1.6c-1.7,0.5-3.6,0.9-5.6,1.3
				c-2,0.3-4,0.5-5.7,0.6c-1.8,0.1-3.4,0-4.7-0.1c-1.3-0.1-2.4-0.2-3.2-0.4s-1.1-0.2-1.1-0.2s0.4,0,1.2,0.1c0.7,0.1,1.8,0.2,3.1,0.2
				c1.3,0.1,2.9,0.1,4.7,0c1.9-0.1,3.8-0.3,5.7-0.6c1.9-0.3,3.7-0.7,5.6-1.2c1.7-0.5,3.2-1,4.4-1.5c1-0.4,1.9-0.8,2.9-1.2
				C142.9,71.3,143.3,71.2,143.3,71.2L143.3,71.2L143.3,71.2z M87.2,159.1c0,0-0.3-0.3-0.7-0.8c-0.6-0.7-1.2-1.5-1.9-2.2
				c-1.6-1.9-3.9-4.4-6.6-6.9c-1.4-1.3-2.8-2.4-4.2-3.2c-1.4-0.8-2.8-1.3-4-1.5c-2.4-0.5-3.9,0.1-3.9,0c0,0,0.1-0.1,0.3-0.1
				c0.2-0.1,0.4-0.1,0.8-0.2c0.7-0.1,1.7-0.2,2.9,0s2.7,0.7,4.1,1.5c1.4,0.8,2.9,1.9,4.2,3.2c2.3,2.2,4.5,4.6,6.6,7
				c0.6,0.8,1.2,1.5,1.8,2.3C87,158.7,87.2,159.1,87.2,159.1L87.2,159.1L87.2,159.1z M150.3,183c0,0-0.1,0.1-0.3,0.2
				c-0.2,0.1-0.5,0.4-0.9,0.6c-0.8,0.5-2.1,1.2-3.7,1.8c-3.2,1.2-8.1,2.1-13.4,1.1c-5.2-1.1-9.4-3.8-11.9-6.2
				c-1.3-1.2-2.2-2.3-2.7-3.1c-0.3-0.4-0.5-0.7-0.6-0.9c-0.1-0.2-0.2-0.3-0.2-0.3c0,0,0.3,0.4,0.9,1.2c0.8,1.1,1.8,2.1,2.8,3
				c2.5,2.3,6.6,5,11.8,6.1c5.1,1.1,10,0.2,13.2-0.9c1.3-0.4,2.5-1,3.7-1.6C149.8,183.2,150.3,182.9,150.3,183L150.3,183L150.3,183z
				 M173.3,233.1c0,0-0.1-0.1-0.2-0.4c-0.1-0.3-0.4-0.6-0.6-1.1c-0.5-1-1.4-2.3-2.7-4l-1.1-1.3c-0.2-0.2-0.4-0.4-0.6-0.7
				c-0.2-0.2-0.4-0.4-0.7-0.7c-0.5-0.5-0.9-0.9-1.4-1.4c-0.5-0.4-1.1-0.9-1.7-1.4c-2.6-2.1-5.6-3.9-8.7-5.2
				c-3.5-1.4-7.5-2.5-11.9-2.8c-4.4-0.2-9.2,0.4-13.8,2.2c-4.6,1.8-9.1,4.6-13.8,7.2c-2.4,1.3-4.8,2.6-7.4,3.7
				c-2.6,1.1-5.4,1.9-8.3,2.2c-2.9,0.3-5.8,0.1-8.5-0.5c-2.8-0.6-5.4-1.6-7.9-2.7c-5-2.3-9.3-5.2-13.4-8.1
				c-4.1-2.9-7.9-5.7-11.7-7.9c-3.8-2.2-7.6-3.9-11.3-4.8c-3.7-0.9-7.1-1-10.1-0.7c-3,0.3-5.4,1.2-7.3,2.1c-1.9,0.9-3.1,2-4,2.7
				c-0.4,0.4-0.7,0.7-0.9,0.9c-0.2,0.2-0.3,0.3-0.3,0.3s0.1-0.1,0.3-0.3c0.2-0.2,0.5-0.5,0.9-0.9c0.8-0.7,2.1-1.9,4-2.8
				c1.9-1,4.4-1.9,7.3-2.2c3-0.4,6.5-0.2,10.2,0.6c3.7,0.9,7.5,2.6,11.4,4.8c3.8,2.2,7.7,5,11.8,7.9c4.1,2.9,8.4,5.8,13.3,8.1
				c2.5,1.1,5.1,2.1,7.8,2.6c2.7,0.6,5.6,0.8,8.4,0.5c2.8-0.3,5.6-1.1,8.2-2.1c2.6-1,5-2.3,7.4-3.7c4.7-2.6,9.2-5.4,13.9-7.2
				c1.2-0.4,2.3-0.9,3.5-1.1c0.6-0.1,1.2-0.3,1.8-0.4c0.6-0.1,1.2-0.2,1.8-0.3c2.3-0.4,4.7-0.4,6.9-0.3c4.5,0.2,8.5,1.4,12,2.8
				c3.5,1.5,6.4,3.4,8.7,5.3c0.6,0.5,1.1,0.9,1.7,1.4l1.4,1.4l0.7,0.7l0.6,0.7c0.4,0.4,0.7,0.9,1.1,1.3c1.3,1.7,2.2,3.1,2.6,4.1
				c0.2,0.5,0.4,0.9,0.6,1.1C173.2,233,173.3,233.1,173.3,233.1L173.3,233.1L173.3,233.1z M149.4,266.1c0,0-0.1,0-0.4,0.1
				c-0.4,0.1-0.8,0.1-1.2,0.2c-0.5,0.1-1.1,0.2-1.9,0.3c-0.7,0.1-1.6,0.2-2.5,0.2c-0.5,0-0.9,0-1.4,0.1c-0.5,0-1,0-1.6,0
				c-1.1,0-2.2-0.1-3.5-0.2c-2.6-0.3-5.2-0.8-7.8-1.5c-2.5-0.8-5-1.7-7.4-2.9c-1.1-0.6-2.1-1.1-3-1.7c-0.5-0.3-0.9-0.5-1.3-0.8
				c-0.4-0.3-0.8-0.6-1.2-0.8c-0.8-0.5-1.4-1.1-2-1.5c-0.5-0.4-1-0.8-1.4-1.2c-0.3-0.3-0.6-0.5-0.9-0.8c-0.2-0.2-0.3-0.3-0.3-0.3
				s0.1,0.1,0.3,0.2c0.2,0.2,0.6,0.4,0.9,0.8c0.4,0.3,0.9,0.7,1.5,1.2c0.6,0.4,1.2,1,2,1.5c0.4,0.3,0.8,0.5,1.2,0.8
				c0.4,0.3,0.9,0.5,1.3,0.8c0.9,0.6,1.9,1.1,3,1.6c2.4,1.1,4.8,2.1,7.4,2.9c2.7,0.8,5.3,1.2,7.7,1.5c1.2,0.1,2.4,0.2,3.4,0.2
				c0.5,0,1.1,0,1.6,0c0.5,0,1,0,1.4,0c0.9,0,1.8-0.1,2.5-0.1c0.6,0,1.2-0.1,1.9-0.2c0.5-0.1,0.9-0.1,1.2-0.1
				C149.3,266.1,149.4,266.1,149.4,266.1L149.4,266.1L149.4,266.1z"/>
			<path class="st3" d="M471.5,203.8l26.4-2.6l2.7,27.9l-26.4,2.6l4.5,46.4l-34.7,3.4l-4.5-46.4l-89.5,8.8l-2.9-21.1l75.4-149.6
				l35.8-3.5L471.5,203.8L471.5,203.8L471.5,203.8z M380.9,212.7l56-5.5l-8.3-84.7l-0.9-0.2l-2.3,6.4L380.9,212.7L380.9,212.7z"/>
			<path class="st5" d="M471.5,203.8l26.4-2.6l2.7,27.9l-26.4,2.6l4.5,46.4l-34.7,3.4l-4.5-46.4l-89.5,8.8l-2.9-21.1l75.4-149.6
				l35.8-3.5L471.5,203.8L471.5,203.8L471.5,203.8z M380.9,212.7l56-5.5l-8.3-84.7l-0.9-0.2l-2.3,6.4L380.9,212.7L380.9,212.7z"/>
			<path class="st3" d="M493.6,201.6l26.4-2.6l2.7,27.9l-26.4,2.6l4.5,46.4l-34.7,3.4l-4.5-46.4l-89.5,8.8l-2.9-21.1L444.6,71
				l35.8-3.5L493.6,201.6L493.6,201.6L493.6,201.6z M402.9,210.5l56-5.5l-8.3-84.7l-0.9-0.2l-2.3,6.4L402.9,210.5L402.9,210.5z"/>
			<path class="st3" d="M370.2,224.5c0,0-0.3,0.2-0.8,0.6c-0.7,0.5-1.5,1-2.2,1.5c-2.5,1.6-5,3.2-7.5,4.7c-2.5,1.5-5.1,3-7.6,4.4
				c-1,0.6-1.8,1-2.4,1.3s-0.9,0.4-0.9,0.4c0,0,0.3-0.2,0.8-0.6c0.6-0.4,1.4-0.8,2.3-1.4c2.5-1.5,5-3,7.6-4.5
				c2.9-1.8,5.5-3.4,7.5-4.6c0.9-0.6,1.7-1,2.3-1.4C369.9,224.7,370.2,224.5,370.2,224.5L370.2,224.5L370.2,224.5z M379.6,199.3
				c0,0-0.4,0.3-1.1,0.8c-0.7,0.5-1.8,1.2-3.1,2c-3.4,2.2-6.8,4.3-10.3,6.4c-3.5,2.1-6.9,4.1-10.5,6.1c-1.1,0.6-2.1,1.2-3.2,1.8
				c-0.8,0.4-1.2,0.6-1.2,0.6c0,0,0.4-0.3,1.1-0.7l3.1-1.9c2.7-1.6,6.4-3.8,10.4-6.2c4-2.4,7.6-4.6,10.4-6.2
				c1.3-0.8,2.3-1.4,3.1-1.9C379.2,199.5,379.6,199.2,379.6,199.3L379.6,199.3L379.6,199.3z M392.2,176.1c0,0-0.4,0.3-1.1,0.8
				s-1.9,1.2-3.2,2c-3.6,2.2-7.2,4.3-10.8,6.4c-4.2,2.5-8.1,4.6-10.9,6.2c-1.1,0.6-2.2,1.2-3.4,1.8c-0.8,0.4-1.2,0.6-1.3,0.6
				s0.4-0.3,1.2-0.7c1.1-0.6,2.2-1.3,3.3-1.9c2.8-1.6,6.6-3.9,10.9-6.3c4.2-2.4,8-4.7,10.9-6.3c1.4-0.8,2.5-1.4,3.3-1.9
				C391.8,176.3,392.2,176.1,392.2,176.1L392.2,176.1z M458,191.4c0,0-0.3,0.2-0.8,0.6c-0.5,0.4-1.3,0.9-2.2,1.4
				c-2.5,1.6-5,3.1-7.5,4.5c-2.5,1.5-5.1,2.9-7.7,4.3c-1,0.5-1.8,0.9-2.4,1.2s-0.9,0.4-0.9,0.4c0,0,0.3-0.2,0.8-0.5
				c0.6-0.4,1.4-0.8,2.3-1.3c2-1.2,4.7-2.7,7.6-4.4l7.6-4.4c0.9-0.5,1.7-1,2.3-1.3C457.7,191.6,458,191.4,458,191.4L458,191.4
				L458,191.4z M461.6,234.8c0,0-0.2,0.2-0.8,0.6c-0.5,0.4-1.2,0.8-2.1,1.4c-2.4,1.6-4.8,3.1-7.3,4.5c-2.4,1.5-4.9,2.9-7.4,4.2
				c-1,0.5-1.7,0.9-2.3,1.2c-0.5,0.3-0.9,0.4-0.9,0.4c0,0,0.3-0.2,0.8-0.5c0.6-0.4,1.4-0.8,2.2-1.3c2-1.1,4.5-2.7,7.4-4.3
				c2.8-1.7,5.4-3.2,7.3-4.4l2.2-1.3C461.3,235,461.6,234.8,461.6,234.8L461.6,234.8L461.6,234.8z M463.4,250c0,0-0.2,0.2-0.8,0.6
				c-0.5,0.4-1.2,0.8-2.1,1.4c-2.4,1.6-4.8,3.1-7.3,4.5c-2.4,1.5-4.9,2.9-7.4,4.2c-1,0.5-1.7,0.9-2.3,1.2c-0.5,0.3-0.9,0.4-0.9,0.4
				c0,0,0.3-0.2,0.8-0.5l2.2-1.3c2-1.2,4.5-2.7,7.4-4.3c2.8-1.7,5.4-3.2,7.3-4.4l2.2-1.3C463,250.1,463.3,249.9,463.4,250L463.4,250
				L463.4,250z M465.1,265.1c0,0-0.2,0.2-0.8,0.6c-0.7,0.5-1.4,1-2.1,1.4c-1.8,1.2-4.4,2.8-7.3,4.5c-2.4,1.5-4.9,2.9-7.4,4.2
				c-1,0.5-1.7,0.9-2.3,1.2s-0.9,0.4-0.9,0.4c0,0,0.3-0.2,0.8-0.5l2.2-1.3c2-1.2,4.5-2.7,7.4-4.3c2.8-1.7,5.4-3.2,7.3-4.4
				c0.9-0.5,1.6-1,2.2-1.3C464.8,265.2,465.1,265.1,465.1,265.1L465.1,265.1z M456.1,175.4c0,0-0.3,0.2-0.8,0.6
				c-0.5,0.4-1.3,0.9-2.2,1.4c-2.5,1.6-5,3.1-7.5,4.5c-2.5,1.5-5.1,2.9-7.7,4.3c-1,0.5-1.8,0.9-2.4,1.2s-0.9,0.4-0.9,0.4
				c0,0,0.3-0.2,0.8-0.5c0.6-0.4,1.4-0.8,2.3-1.3c2-1.2,4.7-2.7,7.6-4.4c2.9-1.7,5.5-3.2,7.6-4.4c0.9-0.5,1.7-1,2.3-1.3
				C455.9,175.6,456.2,175.4,456.1,175.4L456.1,175.4L456.1,175.4z M454.3,159.4c0,0-0.3,0.2-0.8,0.6c-0.5,0.4-1.3,0.9-2.2,1.4
				c-2.5,1.6-5,3.1-7.5,4.5c-2.5,1.5-5.1,2.9-7.7,4.3c-1,0.5-1.8,0.9-2.4,1.2s-0.9,0.4-0.9,0.4c0,0,0.3-0.2,0.8-0.5
				c0.6-0.4,1.4-0.8,2.3-1.3c2-1.2,4.7-2.7,7.6-4.4c2.9-1.7,5.5-3.2,7.6-4.4c0.9-0.5,1.7-1,2.3-1.3
				C454,159.6,454.3,159.4,454.3,159.4L454.3,159.4L454.3,159.4z M452.4,143.4c0,0-0.2,0.2-0.7,0.6c-0.5,0.3-1.2,0.8-2.1,1.4
				c-4.7,3-9.5,5.8-14.4,8.4c-0.9,0.5-1.7,0.9-2.3,1.1s-0.8,0.4-0.9,0.4c0,0,0.3-0.2,0.8-0.5c0.6-0.3,1.3-0.8,2.2-1.3l7.2-4.1
				c2.4-1.4,4.8-2.8,7.2-4.2c0.9-0.5,1.6-0.9,2.2-1.3C452.1,143.6,452.4,143.4,452.4,143.4L452.4,143.4L452.4,143.4z M452.1,128.3
				c0.1,0.1-1.6,1.1-3.7,2.2c-2.1,1.1-3.8,2-3.9,1.9c0-0.1,1.6-1.1,3.7-2.2C450.3,129,452.1,128.2,452.1,128.3z M404.7,152.2
				c0,0-0.4,0.3-1.1,0.8s-1.9,1.2-3.2,2c-3.6,2.2-7.2,4.3-10.8,6.4c-4.2,2.5-8.1,4.6-10.9,6.2c-1.1,0.6-2.2,1.2-3.4,1.8
				c-0.8,0.4-1.2,0.6-1.3,0.6s0.4-0.3,1.2-0.7c0.8-0.5,2-1.1,3.3-1.9c2.8-1.6,6.6-3.9,10.9-6.3c4.2-2.4,8-4.7,10.9-6.3
				c1.4-0.8,2.5-1.4,3.3-1.9C404.2,152.4,404.7,152.2,404.7,152.2L404.7,152.2L404.7,152.2z M417.1,128.3c0,0-0.4,0.3-1.1,0.8
				s-1.9,1.2-3.2,2c-3.6,2.2-7.2,4.3-10.8,6.4c-4.2,2.5-8.1,4.6-10.9,6.2c-1.1,0.6-2.2,1.2-3.4,1.8c-0.8,0.4-1.2,0.6-1.3,0.6
				c0,0,0.4-0.3,1.2-0.7c0.8-0.5,2-1.1,3.3-1.9c2.8-1.6,6.6-3.9,10.9-6.3c4.2-2.4,8-4.7,10.9-6.3c1.4-0.8,2.5-1.4,3.3-1.9
				C416.7,128.5,417.1,128.3,417.1,128.3L417.1,128.3z M428.4,104.6c0,0-0.4,0.3-1.1,0.8c-0.8,0.5-1.9,1.2-3.2,2
				c-3.6,2.2-7.2,4.3-10.8,6.4c-4.2,2.5-8.1,4.6-10.9,6.2c-1.1,0.6-2.2,1.2-3.4,1.8c-0.8,0.4-1.2,0.6-1.3,0.6c0,0,0.4-0.3,1.2-0.7
				c0.8-0.5,2-1.1,3.3-1.9c2.8-1.6,6.6-3.8,10.9-6.3c4.2-2.4,8-4.7,10.9-6.3c1.4-0.8,2.5-1.4,3.3-1.9
				C428,104.8,428.4,104.6,428.4,104.6L428.4,104.6z M440.4,81.6c0,0-0.4,0.3-1.1,0.8c-0.8,0.5-1.9,1.2-3.2,2
				c-3.6,2.2-7.2,4.3-10.8,6.4c-4.2,2.5-8.1,4.6-10.9,6.2c-1.1,0.6-2.2,1.2-3.4,1.8c-0.8,0.4-1.2,0.6-1.3,0.6c0,0,0.4-0.3,1.2-0.7
				c0.8-0.5,2-1.1,3.3-1.9c2.8-1.6,6.6-3.8,10.9-6.3c4.2-2.4,8-4.7,10.9-6.3c1.4-0.8,2.5-1.4,3.3-1.9
				C440,81.8,440.4,81.6,440.4,81.6L440.4,81.6L440.4,81.6z"/>
			<path class="st6" d="M484.6,107.9c0,0-0.1,0.2-0.4,0.6c-0.3,0.4-0.6,0.9-1.2,1.6c-1.1,1.3-2.9,3.1-5.5,4.8
				c-2.6,1.7-6.1,3.2-10.1,3.9c-2.1,0.3-4.3,0.4-6.4,0.2c-2.2-0.2-4.5-0.8-6.7-1.5c-4.5-1.5-8.6-3.3-12.5-4.5
				c-3.9-1.2-7.6-1.6-10.6-1.2c-3.1,0.3-5.4,1.3-6.8,2.3c-0.7,0.5-1.2,0.9-1.6,1.2c-0.3,0.3-0.5,0.5-0.5,0.4s0.1-0.2,0.5-0.5
				c0.3-0.3,0.8-0.8,1.5-1.3c1.4-1,3.8-2.1,6.9-2.5c3.1-0.4,6.9-0.1,10.8,1.2c3.9,1.2,8,3,12.5,4.5c2.2,0.7,4.5,1.3,6.7,1.5
				c2.1,0.2,4.2,0.2,6.3-0.2c4-0.6,7.4-2.1,10-3.7c2.1-1.3,3.9-2.9,5.6-4.7c0.6-0.6,1-1.2,1.3-1.5
				C484.4,108,484.6,107.8,484.6,107.9L484.6,107.9z M468.2,70.7c0,0-0.3,0.3-0.9,0.7c-0.6,0.4-1.5,1-2.6,1.7
				c-1.1,0.7-2.5,1.4-4.2,2.2c-1.8,0.8-3.5,1.5-5.4,2.1c-1.8,0.6-3.7,1-5.6,1.4c-1.8,0.3-3.3,0.5-4.7,0.6c-1.3,0.1-2.4,0.1-3.2,0.1
				c-0.8,0-1.2,0-1.2-0.1s0.4-0.1,1.1-0.1c0.7,0,1.8-0.1,3.1-0.2c1.5-0.2,3.1-0.4,4.6-0.7c1.9-0.4,3.7-0.8,5.5-1.4
				c1.8-0.6,3.6-1.2,5.4-2c1.4-0.6,2.8-1.3,4.2-2.1c0.9-0.5,1.8-1.1,2.7-1.6C467.8,70.9,468.2,70.6,468.2,70.7L468.2,70.7
				L468.2,70.7z M424.9,165.6c0,0-0.3-0.2-0.8-0.7c-0.6-0.5-1.3-1.2-2.2-1.9c-1.8-1.6-4.5-3.8-7.5-5.9c-1.5-1.1-3.1-2-4.6-2.6
				s-2.9-0.9-4.1-1c-2.5-0.1-3.9,0.6-3.9,0.5c0,0,0.1-0.1,0.2-0.1s0.4-0.2,0.7-0.3c0.7-0.2,1.7-0.4,2.9-0.4c1.2,0,2.7,0.3,4.3,0.9
				c1.5,0.6,3.1,1.5,4.6,2.6c2.6,1.8,5.1,3.9,7.5,6c0.7,0.7,1.4,1.3,2.1,2C424.7,165.3,424.9,165.6,424.9,165.6L424.9,165.6
				L424.9,165.6z M490.8,180.4c0,0-0.1,0.1-0.3,0.3c-0.2,0.2-0.5,0.4-0.9,0.7c-0.8,0.6-1.9,1.4-3.4,2.3c-3,1.7-7.8,3.2-13.1,2.9
				c-5.4-0.3-9.9-2.5-12.7-4.5c-1.4-1-2.5-2-3.1-2.7c-0.4-0.3-0.6-0.6-0.8-0.8c-0.2-0.2-0.2-0.3-0.2-0.3c0,0,0.4,0.4,1.1,1
				c1,0.9,2,1.8,3.2,2.5c2.8,1.9,7.3,4,12.5,4.3c5.2,0.3,9.9-1.2,13-2.8c1.2-0.6,2.4-1.3,3.5-2.1
				C490.3,180.7,490.7,180.4,490.8,180.4L490.8,180.4L490.8,180.4z M520.7,226.7c0,0-0.1-0.1-0.3-0.3c-0.2-0.2-0.4-0.6-0.8-1
				c-0.6-0.9-1.8-2.1-3.2-3.6c-0.4-0.4-0.8-0.7-1.2-1.1c-0.2-0.2-0.4-0.4-0.7-0.6c-0.2-0.2-0.5-0.4-0.8-0.6c-0.5-0.4-1-0.8-1.6-1.2
				c-0.6-0.4-1.2-0.7-1.8-1.1c-2.9-1.7-6.1-3-9.3-3.9c-3.6-0.9-7.8-1.4-12.2-1.1c-4.4,0.4-9,1.7-13.3,4.1c-4.3,2.4-8.4,5.8-12.7,9.1
				c-2.2,1.6-4.4,3.3-6.8,4.7c-2.4,1.4-5.1,2.6-7.9,3.3c-2.8,0.7-5.7,0.9-8.5,0.7c-2.8-0.2-5.5-0.8-8.2-1.6
				c-5.2-1.5-10-3.9-14.4-6.2s-8.6-4.5-12.7-6.2c-4.1-1.7-8.1-2.8-11.8-3.2c-3.7-0.4-7.2,0-10,0.8c-2.9,0.7-5.2,1.9-6.9,3.1
				c-1.8,1.2-2.8,2.4-3.5,3.3c-0.3,0.4-0.6,0.8-0.8,1c-0.2,0.2-0.3,0.3-0.3,0.3s0.1-0.1,0.2-0.4c0.2-0.2,0.4-0.6,0.7-1
				c0.7-0.8,1.8-2.1,3.5-3.3c1.7-1.2,4.1-2.4,7-3.2c2.9-0.8,6.4-1.1,10.1-0.8c3.8,0.3,7.8,1.5,11.9,3.1c4.1,1.7,8.3,3.9,12.8,6.2
				c4.4,2.3,9.1,4.6,14.3,6.1c2.6,0.8,5.3,1.4,8.1,1.5c2.8,0.2,5.6,0,8.4-0.7c2.8-0.7,5.4-1.9,7.8-3.3c2.4-1.4,4.6-3,6.8-4.7
				c4.3-3.3,8.4-6.6,12.7-9.1c1.1-0.6,2.2-1.2,3.3-1.6c0.6-0.2,1.1-0.5,1.7-0.7c0.6-0.2,1.1-0.4,1.7-0.5c2.3-0.7,4.6-1.1,6.8-1.3
				c4.5-0.4,8.6,0.1,12.3,1.1c3.3,0.9,6.4,2.2,9.4,4l1.8,1.2c0.5,0.4,1.1,0.8,1.6,1.2c0.2,0.2,0.5,0.4,0.8,0.6
				c0.2,0.2,0.5,0.4,0.7,0.6c0.4,0.4,0.8,0.8,1.2,1.1c1.5,1.5,2.6,2.7,3.2,3.7c0.3,0.4,0.6,0.8,0.7,1
				C520.5,226.6,520.6,226.8,520.7,226.7L520.7,226.7L520.7,226.7z M501.6,262.8c0,0-0.1,0.1-0.4,0.2c-0.3,0.1-0.7,0.2-1.1,0.4
				c-0.6,0.2-1.2,0.4-1.8,0.5c-0.7,0.2-1.5,0.4-2.4,0.6c-0.5,0.1-0.9,0.2-1.4,0.3c-0.5,0.1-1,0.1-1.6,0.2c-1.1,0.2-2.2,0.2-3.5,0.3
				c-2.6,0.1-5.3,0-7.9-0.4c-2.6-0.4-5.2-1-7.7-1.8c-1.1-0.4-2.3-0.8-3.2-1.2c-0.5-0.2-1-0.4-1.4-0.6s-0.9-0.5-1.3-0.7
				c-0.8-0.4-1.5-0.9-2.2-1.2c-0.5-0.3-1.1-0.6-1.6-1c-0.4-0.3-0.7-0.5-1-0.7c-0.2-0.2-0.3-0.2-0.3-0.3c0,0,0.1,0,0.4,0.2
				c0.3,0.2,0.6,0.4,1,0.6c0.4,0.3,1,0.6,1.6,1c0.6,0.4,1.4,0.8,2.2,1.2c0.4,0.2,0.9,0.4,1.3,0.6c0.5,0.2,0.9,0.4,1.4,0.6
				c1,0.4,2.1,0.8,3.2,1.2c2.5,0.8,5.1,1.4,7.7,1.8c2.8,0.4,5.4,0.5,7.9,0.4c1.2-0.1,2.4-0.1,3.4-0.2c0.5-0.1,1.1-0.1,1.5-0.2
				s1-0.2,1.4-0.2c0.9-0.1,1.7-0.4,2.4-0.5c0.7-0.1,1.3-0.3,1.8-0.5c0.5-0.1,0.8-0.2,1.1-0.3C501.5,262.9,501.6,262.8,501.6,262.8
				L501.6,262.8L501.6,262.8z"/>
			<path class="st1" d="M336.8,146.9l-5.5-0.9L297,135l-20.1-5.8c-4.7-1.6-10.8-2.2-17.4,1.2c-9.5,4.8-35.6,29.2-35.6,29.2
				l18.8,19.4l-8.9,39.3c9.9,28.2,29.4,31.5,29.4,31.5s12.8,1.1,27.9-4.6c18.1-6.9,37-23,39.4-30c1.4-4.2,2.6-12.9,3.5-22.8
				l28.6-11.6l7.8-39.5L336.8,146.9L336.8,146.9L336.8,146.9z"/>
			<path class="st7" d="M295.1,216.9c0,0-0.1,0.1-0.3,0.2c-0.2,0.1-0.5,0.4-0.9,0.6c-0.8,0.5-1.9,1.2-3.4,1.8
				c-3,1.3-7.7,2.3-12.7,1.2c-5-1.1-8.8-3.9-11-6.4c-1.1-1.2-1.9-2.3-2.4-3.1c-0.2-0.4-0.4-0.7-0.5-0.9c-0.1-0.2-0.2-0.3-0.1-0.3
				c0,0,0.3,0.4,0.8,1.2c0.5,0.8,1.3,1.8,2.4,3c2.2,2.4,6,5.1,10.9,6.2s9.5,0.1,12.5-1.1c1.2-0.5,2.4-1,3.5-1.7
				C294.7,217.2,295.1,216.9,295.1,216.9L295.1,216.9L295.1,216.9z M284.2,136.6c0,0,0,0.1,0.1,0.2c0,0.1,0.1,0.3,0.1,0.6
				c0.1,0.5,0.3,1.2,0.5,2.2c0.4,1.9,1,4.6,1.1,8.1c0.1,1.7,0,3.6-0.3,5.6c-0.4,2-1.1,4.1-2.3,6.1c-1.2,2-2.8,3.8-4.7,5.4
				c-1.9,1.7-3.9,3.2-6,4.8c-4.5,3.4-8.8,6.4-12.7,9.1c-3.9,2.8-7.3,5.2-10,7.3l-0.1,0.1l-0.1-0.1c-2.4-2-4.3-3.7-5.5-4.9
				c-0.6-0.6-1-1.1-1.3-1.5c-0.1-0.2-0.2-0.3-0.3-0.4c-0.1-0.1-0.1-0.1-0.1-0.2c0,0,0.1,0.2,0.4,0.5c0.3,0.4,0.7,0.9,1.3,1.5
				c1.2,1.2,3.1,2.9,5.6,4.8h-0.2c2.7-2.1,6.1-4.6,10-7.4s8.2-5.8,12.6-9.1c2.1-1.6,4.1-3.1,6-4.8c1.8-1.6,3.5-3.4,4.6-5.3
				c1.1-1.8,1.9-3.9,2.2-6c0.4-2,0.4-3.9,0.4-5.6c-0.1-3.4-0.7-6.2-1-8.1c-0.2-0.9-0.3-1.6-0.4-2.2c0-0.2-0.1-0.4-0.1-0.6
				C284.2,136.7,284.2,136.6,284.2,136.6L284.2,136.6L284.2,136.6z M433.2,154.4c8-6.9,10.8-19.3,6.3-28.9
				c-3.8-0.4-7.5-0.8-11.3-1.2c5.7-3,9.2-9.9,8.2-16.3c-6.1,6.6-16.7,8.5-24.7,4.6c-5.3-2.6-9.6-7.5-15.4-8.5
				c-5.3-0.9-10.5,1.5-15.5,3.3c-5,1.8-11.2,2.8-15.3-0.6c-3.3-2.7-4.3-7.3-4.1-11.5c0.2-4.2,1.4-8.4,1.7-12.6
				c0.5-8.3-3.1-16.7-9.2-22.3c-1.9-6-6.5-11.2-12.3-13.7c-7.1-3-15.7-1.9-21.8,2.8c-2.5,1.9-4.6,4.4-7.4,5.8
				c-3.2,1.6-6.9,1.6-10.3,2.4c-3.4,0.8-7,3.1-7.4,6.6l-1.4,7.2c-0.2,0.5-0.5,1-0.8,1.5c-2.9,5.1-8.9,8.5-10.2,14.2
				c-0.7,3.2,0.2,6.7-0.9,9.8c-1.4,4.1-5.9,6.4-7.9,10.2c-2.8,5.2-0.9,14.4,3.6,18.3c4.5,3.9,13.9,8,19.7,9.2
				c1.6-6.1,3-12.6,4.3-19.2c2.4,2.3,4.9,4.5,7.4,6.6c6.5,5.7,13.1,11.4,17.6,18.7c8.6,13.9,8.7,32.4,19.5,44.7
				c2.1,2.4,4.7,4.6,7.8,5.5c3.1,0.9,6.7,0.4,9-1.8c2.7-2.7,3-7.2,6-9.5c3.9-3.1,9.7-0.6,13.9,2.1c3.1,2,6.1,4,9.6,5.1
				c3.5,1.1,7.5,1,10.5-1.1c3-2.1,4.3-6.6,2.1-9.6c-0.9-1.2-2.1-2-3-3.2s-1.1-3.1,0.1-3.9c1.3-1,3.1,0,4.5,0.8
				c6.8,4,15.3,4.7,22.7,2c7.4-2.7,13.4-8.9,15.9-16.3C440.9,156.4,436.9,155.9,433.2,154.4L433.2,154.4L433.2,154.4z"/>
			<path class="st1" d="M360,67c0,0-0.2,0-0.6-0.2c-0.4-0.1-0.9-0.3-1.6-0.6c-1.3-0.6-3-1.6-4.7-3.1s-2.9-3-3.7-4.2
				c-0.3-0.5-0.6-1-0.9-1.5c-0.2-0.4-0.3-0.6-0.2-0.6c0.1,0,0.5,0.7,1.4,1.9c1.1,1.5,2.4,2.8,3.8,4.1c1.4,1.2,2.9,2.2,4.6,3.1
				C359.2,66.6,360.1,66.9,360,67L360,67z M386.3,120.9c0,0-0.5-0.1-1.4-0.3s-2.2-0.4-3.8-0.5c-1.6-0.1-3.6,0-5.8,0.2
				c-2.2,0.2-4.6,0.4-7.1,0.3c-2.5-0.1-5-0.4-7-1.3c-2-0.9-3.6-2.1-4.7-3.4c-1.1-1.3-1.6-2.6-1.8-3.5c-0.1-0.4-0.2-0.8-0.2-1.1
				c0-0.2,0-0.4,0-0.4c0,0,0.1,0.5,0.3,1.4c0.2,0.9,0.8,2.1,1.9,3.3c1,1.2,2.6,2.4,4.6,3.3c2,0.8,4.4,1.2,6.8,1.2
				c2.5,0.1,4.9-0.2,7-0.3s4.1-0.2,5.8-0.1c1.6,0.1,3,0.4,3.9,0.6c0.4,0.1,0.8,0.2,1,0.3C386.2,120.9,386.3,120.9,386.3,120.9
				C386.3,120.9,386.3,120.9,386.3,120.9z M433,156.9c0,0-0.1,0-0.2,0.1c-0.2,0.1-0.4,0.2-0.7,0.2c-0.6,0.1-1.6,0.2-2.8-0.1
				c-1.2-0.4-2.6-1.1-3.8-2.4c-1.3-1.3-2.2-3.1-3-5.1c-0.9-2-1.6-4.4-3-6.5c-0.7-1.1-1.6-2.1-2.5-3.1c-1-0.9-2.1-1.8-3.4-2.5
				c-5-3-11.5-4.2-18.2-3.8c-6.7,0.4-13,1.7-18.8,2.1c-5.8,0.5-11.2-0.1-15.4-1.6c-4.2-1.4-7.1-3.7-8.8-5.5c-0.4-0.4-0.8-0.9-1-1.3
				c-0.2-0.3-0.5-0.6-0.7-1c-0.2-0.3-0.3-0.5-0.4-0.6c-0.1-0.1-0.1-0.2-0.1-0.2s0,0.1,0.2,0.2c0.1,0.2,0.2,0.4,0.4,0.6
				c0.2,0.3,0.4,0.6,0.7,1c0.3,0.4,0.6,0.8,1.1,1.2c1.7,1.8,4.6,4,8.8,5.4c4.1,1.4,9.4,2,15.2,1.5c5.8-0.4,12.1-1.8,18.9-2.1
				c6.7-0.4,13.3,0.9,18.4,3.9c1.3,0.7,2.4,1.7,3.4,2.6c1,1,1.9,2,2.5,3.1c1.4,2.2,2.1,4.6,3,6.6c0.8,2,1.7,3.8,3,5.1
				c1.2,1.3,2.5,2,3.7,2.4s2.1,0.3,2.8,0.2C432.6,157.1,433,156.9,433,156.9L433,156.9z"/>
			<path class="st8" d="M308.5,67c-3.1-0.1-5.7,2.2-6,5.2l-6.4,66.6c-1.1,9.4,11.1,29.5,21.2,30.6c10.1,1.1,11.1-3.8,12.5-12.7
				c2.2-14.8,2.9-20.4,2.9-20.3c0,0,13-0.4,17.9-16.8c2.4-8.1,3.8-21.8,4.5-33c0.7-10.1-4.3-23.2-14.4-23.5L308.5,67L308.5,67z"/>
			<path class="st7" d="M350.7,95.5c-0.1,1.1-1.2,2-2.3,1.9c-1.2-0.1-2.1-1.1-2-2.2c0.1-1.1,1.1-2,2.3-1.9
				C349.9,93.4,350.8,94.4,350.7,95.5z M351.6,91.2c-0.2,0.3-2-0.8-4.3-0.6c-2.3,0.1-3.9,1.4-4.2,1.2c-0.1-0.1,0.1-0.6,0.8-1.2
				c0.7-0.6,1.9-1.2,3.3-1.3s2.7,0.4,3.4,0.8C351.4,90.6,351.7,91.1,351.6,91.2L351.6,91.2z M330.3,96.7c-0.3,0.3-1.9-1-4.2-1
				c-2.3-0.1-4,1.1-4.3,0.8c-0.1-0.1,0.2-0.6,0.9-1.2c0.7-0.5,2-1,3.5-1c1.5,0.1,2.6,0.6,3.3,1.2C330.2,96.1,330.5,96.6,330.3,96.7z
				 M334.6,109c0-0.1,1.5-0.2,3.8-0.2c0.6,0,1.2,0,1.3-0.4c0.2-0.4,0-1.1-0.2-1.8c-0.4-1.5-0.7-3.1-1.1-4.7
				c-1.6-6.7-2.6-12.2-2.4-12.2c0.3-0.1,1.8,5.3,3.3,12c0.4,1.7,0.7,3.2,1.1,4.7c0.1,0.7,0.4,1.5,0,2.3c-0.2,0.4-0.7,0.7-1.1,0.7
				c-0.4,0.1-0.7,0-1,0C336.1,109.3,334.6,109.1,334.6,109L334.6,109z"/>
			<path class="st9" d="M332.6,136.4c0,0-11.3-0.8-21.5-8.9c0,0,4.1,12.2,21,12.8L332.6,136.4z"/>
			<path class="st7" d="M330.6,92.8c-0.4,0.6-2.6-0.2-5.3-0.6c-2.7-0.4-5-0.1-5.3-0.7c-0.1-0.3,0.4-0.8,1.4-1.2
				c1-0.4,2.5-0.6,4.1-0.4c1.6,0.2,3,0.8,3.9,1.4C330.4,91.9,330.8,92.5,330.6,92.8L330.6,92.8z M351.2,88.1c-0.4,0.6-2,0.1-3.9,0.2
				c-1.9,0-3.5,0.5-3.9,0c-0.2-0.3,0-0.8,0.7-1.3c0.7-0.5,1.8-1,3.1-1c1.3,0,2.5,0.4,3.2,0.9C351.2,87.3,351.4,87.8,351.2,88.1
				L351.2,88.1L351.2,88.1z"/>
			<path class="st9" d="M329,113.2c1.1-0.7,2.4-1,3.6-0.8c0.6,0.1,1.3,0.4,1.7,0.9c0.5,0.7,0.6,1.6,0.6,2.4c0,0.5,0,1-0.2,1.5
				c-0.2,0.5-0.5,0.9-1,1.1c-0.5,0.2-1,0.2-1.5,0.1c-0.9-0.1-1.7-0.4-2.5-0.9c-0.7-0.5-1.3-1.3-1.4-2.1c-0.1-0.9,0.4-1.8,1.2-2.1"/>
			<path class="st7" d="M335.3,118.3c-0.2,0.1-0.5-0.4-1-1.1s-1.4-1.6-2.5-2.2s-2.3-0.9-3.2-1.1c-0.9-0.1-1.5-0.1-1.5-0.3
				c0-0.2,0.5-0.5,1.5-0.6c1-0.1,2.4,0.1,3.8,0.9c1.4,0.8,2.3,1.9,2.7,2.8C335.4,117.6,335.4,118.2,335.3,118.3L335.3,118.3
				L335.3,118.3z M295.2,134.3c5.5-1.1,9.7-5.8,11.6-11.1c1.9-5.3,1.8-11,1.3-16.6c-0.1-0.7-0.2-1.5-0.8-2c-0.8-0.6-2-0.1-2.9,0.4
				c-3.5,2.1-6.8,4.4-10,7c-2.9,2.4-5.9,5.1-7,8.7c-1.7,5.5,1.9,12.1,7.5,13.6"/>
			<path class="st8" d="M421.6,133l-25.9-41.7l-7.2-14.7c0,0-2.3-3-4.7-5.6c-3.9-4.2-7.8-0.9-7.8-0.9s-0.6-1.6-2.6-1.6
				c-2.4,0-3.6,1.8-3.6,1.8s-1.1-1.2-4-1.4c-0.6,0-1.3,0.2-1.9,0.6c-1-0.8-2.7-2.1-4.4-1.4c-1.3,0.5-9.4,6.6-11.4,9.7
				c-1,1.5,0.8,3.5,3.3,2.6c1.1-0.4,2.2-0.7,2.9-1.2c1.3-0.8,2-1.6,2-1.6s-2,3.6,0,4.2c0.9,0.3,2.6,0.1,3.8-0.9
				c0.8-0.7,1.7-1.5,2.5-2.3c0,0.1-0.1,0.1-0.1,0.1c-1.1,1.7,1.8,4.1,3.2,3.1c0.7-0.5,1.3-1,1.9-1.5c3.3,2.4-1.3,5.4-3.2,5.3
				c-3-0.2-6.5-0.2-8.9,0c-1.7,0.1-3.2,0.5-4.1,1.5c-1.1,1.1,0,3.5,1.6,3.7c2.8,0.4,6.5,1.1,10.2,2c4.4,1.1,16,4.9,16,4.9l1.1,0.9
				l15.8,38.5l-27,5.7l-6,34.2l48.7-13.2C423.1,158,428.3,143.4,421.6,133L421.6,133L421.6,133z"/>
			<path class="st9" d="M379.5,97.7c0,0-0.2,0-0.6-0.2c-0.4-0.1-1-0.3-1.8-0.5c-2.1-0.6-4.3-1.3-6.4-1.9c-1.4-0.4-2.8-0.9-4.4-1.3
				c-1.6-0.5-3.3-1-5.1-1.5c-1.8-0.5-3.7-0.9-5.7-1.2c-1-0.2-2.1-0.1-3.1-0.6c-0.3-0.1-0.5-0.3-0.7-0.5c-0.1-0.1-0.2-0.3-0.2-0.4
				l-0.1-0.4c-0.1-0.5-0.1-1.1,0.1-1.7c0.2-0.6,0.6-1,1.1-1.3c0.5-0.3,1-0.4,1.5-0.6c1-0.3,2.1-0.4,3.1-0.4c2.1,0,4,0.3,5.9,0.2
				c0.9,0,1.8-0.1,2.7-0.3c0.9-0.2,1.7-0.4,2.5-0.6c1.6-0.4,3.2-0.7,4.6-0.6c1.4,0.1,2.7,0.5,3.7,0.9c1,0.4,1.9,0.9,2.6,1.3
				c0.7,0.4,1.2,0.7,1.6,0.9c0.4,0.2,0.5,0.3,0.5,0.4c0,0-0.2-0.1-0.6-0.3c-0.4-0.2-0.9-0.5-1.6-0.9c-0.7-0.4-1.6-0.8-2.6-1.2
				c-1-0.4-2.3-0.8-3.7-0.9c-1.4-0.1-2.9,0.2-4.5,0.6c-0.8,0.2-1.6,0.4-2.5,0.6c-0.9,0.2-1.8,0.2-2.7,0.3c-1.9,0.1-3.9-0.2-5.9-0.2
				c-1,0-2,0.1-3,0.4c-1,0.3-2.1,0.7-2.4,1.6c-0.1,0.5-0.1,1-0.1,1.5l0,0.4c0,0.1,0.1,0.2,0.1,0.3c0.1,0.2,0.4,0.3,0.6,0.4
				c0.9,0.4,2,0.4,3,0.5c2,0.3,4,0.7,5.8,1.2c1.7,0.4,3.4,0.9,5.1,1.5c1.6,0.5,3,1,4.4,1.4c2.7,0.8,4.8,1.5,6.4,2
				c0.7,0.2,1.3,0.4,1.7,0.6C379.3,97.6,379.5,97.6,379.5,97.7L379.5,97.7z M359.5,68.1c0,0.1-1.2,0.8-3.1,2.2
				c-1.1,0.8-2.1,1.7-3.1,2.7c-1.1,1.1-2.3,2.3-3.6,3.5c-0.7,0.6-1.3,1.2-1.5,2c-0.1,0.4,0,0.8,0.1,1.1c0.2,0.3,0.5,0.5,0.8,0.6
				c0.7,0.2,1.4,0.2,2.1,0c0.6-0.1,1.2-0.3,1.8-0.5c2.2-0.9,3.2-2,3.2-1.9c0,0-0.2,0.3-0.7,0.7c-0.7,0.6-1.5,1.1-2.4,1.5
				c-0.6,0.3-1.2,0.4-1.9,0.6c-0.7,0.1-1.5,0.2-2.3,0c-0.4-0.1-0.8-0.4-1-0.8c-0.2-0.4-0.3-0.9-0.2-1.3c0.2-0.9,0.9-1.6,1.6-2.2
				c1.4-1.2,2.5-2.4,3.6-3.5c1.7-1.6,3.5-3,5.5-4.2C359.1,68.3,359.4,68.1,359.5,68.1L359.5,68.1z"/>
			<path class="st9" d="M369.4,71.4c0,0-0.3,0.4-0.9,1.1c-0.7,0.7-1.5,1.7-2.6,2.9c-1.3,1.4-2.6,2.8-3.9,4.2
				c-0.8,0.8-1.6,1.6-2.7,2.1c-0.5,0.3-1.1,0.5-1.8,0.4c-0.6,0-1.3-0.2-1.8-0.7c-0.3-0.3-0.4-0.6-0.4-1c0.7-0.9,1.9-1.2,3-1
				c0.2-0.6,0.5-1.2,0.8-1.7l0,0l0,0c1.3-1.4,2.6-2.8,3.9-4.2c1.2-1.3,2.3-2.3,3.2-3.2c0.5-0.4,0.9-0.8,1.4-1.1
				c0.5-0.2,0.9-0.2,1.3-0.3c0.7-0.1,1.1,0,1.1,0.1c0,0-0.4,0-1.1,0.1c-0.3,0.1-0.8,0.1-1.2,0.3c-0.4,0.2-0.8,0.7-1.3,1.1
				c-0.9,0.9-2,1.9-3.2,3.2c-1.3,1.4-2.5,2.8-3.8,4.2l0,0c-0.3,0.5-0.6,1-0.8,1.6c-0.1,0.3-0.1,0.6-0.1,0.9c0,0.3,0.1,0.6,0.3,0.8
				c0.4,0.4,1,0.6,1.5,0.6c0.6,0,1.1-0.2,1.6-0.4c1-0.5,1.9-1.2,2.6-2c1.5-1.6,2.8-2.9,4-4.2c0.9-0.9,1.8-1.8,2.7-2.8
				c0.3-0.3,0.5-0.5,0.8-0.7c0.2-0.1,0.3-0.2,0.3-0.2L369.4,71.4L369.4,71.4z M381.5,75.2c0,0,0,0.2-0.3,0.5
				c-0.3,0.2-0.8,0.4-1.3,0.3c-0.5-0.1-0.9-0.3-1.1-0.8c-0.2-0.3-0.2-0.5-0.1-0.5c0,0,0.2,0.2,0.4,0.4c0.2,0.2,0.5,0.4,1,0.5
				c0.4,0.1,0.8,0,1.1-0.2C381.3,75.3,381.4,75.2,381.5,75.2L381.5,75.2L381.5,75.2z"/>
			<path class="st9" d="M382.4,78.9c-0.1,0.1-0.7-0.5-1.2-1.4c-0.5-0.9-0.8-1.7-0.7-1.7c0.1-0.1,0.5,0.7,1,1.5
				C382.1,78.1,382.5,78.8,382.4,78.9C382.4,78.9,382.4,78.9,382.4,78.9z M384.2,93c0,0-0.4-0.6-0.8-1.7c-0.4-1.1-0.7-2.6-0.6-4.3
				c0-1.7,0.4-3.2,0.8-4.3c0.4-1.1,0.8-1.7,0.8-1.6c0.1,0-1.1,2.6-1.1,5.9C383.1,90.4,384.3,93,384.2,93L384.2,93z M405.5,147.8
				c-0.1,0-0.2-0.8-0.6-2.1c-0.2-0.6-0.5-1.4-0.9-2.2c-0.5-0.8-1-1.6-1.6-2.4c-0.6-0.7-1.4-1.4-2.1-1.9c-0.7-0.5-1.4-0.9-2-1.2
				c-1.2-0.6-2.1-0.8-2-0.8c0,0,0.2,0,0.6,0.1c0.4,0.1,0.9,0.2,1.6,0.5c0.6,0.2,1.4,0.6,2.1,1.2c0.8,0.5,1.5,1.2,2.2,2
				c0.7,0.8,1.2,1.6,1.7,2.5c0.4,0.8,0.7,1.6,0.9,2.3s0.3,1.2,0.3,1.6C405.5,147.6,405.5,147.8,405.5,147.8L405.5,147.8L405.5,147.8
				z"/>
			<path class="st8" d="M315,224.1c-3.5-0.7-6.6,0.8-6.6,0.8c-3.5-1.6-7.9,1.1-7.9,1.1c-1.3-0.6-9,4.4-9,4.4l-9.6,4.5L231,197
				l14.5-15.1l-20.3-21.1l-23.8,24.5c-3,3.1-4.5,7.2-4.7,11.5c-0.6,9.3,4.7,18,13,22.2l60.2,30.9c0,0,6.4-0.2,13.7-2.1
				c5.2-1.4,14.1-5.3,14.1-5.3s0,0.3,1.6,3.3c2.9,5.5,7-0.4,7-0.4s0.9,2,1.6,2.7c3.6,3.5,6.1-1.2,6.1-1.2s1.1,1.9,4.3,0.5
				c3.2-1.4-0.5-11.1-0.5-11.1s1.1,2.1,3.2-0.6C323,233,318.4,224.8,315,224.1L315,224.1L315,224.1z"/>
			<path class="st9" d="M307.7,225.4c0,0,0.2-0.1,0.7-0.2c0.4-0.1,1.1-0.1,1.9,0.1c0.8,0.2,1.7,0.6,2.5,1.3c0.5,0.3,0.9,0.7,1.3,1.1
				c0.4,0.4,0.7,1,1,1.5c0.9,1.9,1.7,3.9,2.3,5.9c0.2,0.8,0.4,1.4,0.5,1.8c0.1,0.4,0.1,0.7,0.1,0.7c-0.1,0-0.4-0.9-0.9-2.4
				c-0.7-2-1.5-3.9-2.4-5.8c-0.3-0.5-0.6-1-0.9-1.5c-0.4-0.4-0.8-0.8-1.2-1.1c-0.8-0.6-1.7-1.1-2.4-1.3
				C308.7,225,307.7,225.5,307.7,225.4L307.7,225.4L307.7,225.4z M313.9,246.9c0,0-0.2-0.3-0.4-0.9c-0.3-0.6-0.7-1.5-1.1-2.4
				c-0.9-2.1-2.3-4.8-3.6-8c-0.6-1.6-1.2-3.1-2.1-4.3c-0.7-1.1-1.8-1.9-2.9-2.4c-1-0.5-1.9-0.5-2.5-0.4c-0.6,0.1-0.9,0.2-1,0.2
				c0,0,0.1-0.1,0.2-0.1s0.4-0.2,0.7-0.2c0.6-0.1,1.6-0.1,2.7,0.3c1.3,0.5,2.3,1.4,3.1,2.5c0.9,1.2,1.5,2.8,2.1,4.4
				c1.3,3.2,2.6,6,3.5,8.1c0.4,1,0.8,1.9,1,2.5C313.8,246.5,313.9,246.9,313.9,246.9L313.9,246.9L313.9,246.9z M290.5,234.6
				c0,0,0.3-0.2,0.8-0.4c0.6-0.3,1.4-0.7,2.3-1.1c0.5-0.2,1-0.5,1.6-0.7c0.6-0.3,1.4-0.4,2-0.3c0.8,0.1,1.5,0.4,2.1,0.8
				c0.6,0.5,1.1,1.2,1.6,1.9s0.8,1.4,1.1,2.1c0.3,0.7,0.7,1.3,1,2c0.7,1.2,1.3,2.3,1.8,3.3c0.4,0.8,0.7,1.5,1,2.3
				c0.2,0.6,0.3,0.9,0.2,0.9c-0.1,0-0.5-1.2-1.5-3.1c-0.5-0.9-1.2-2-1.9-3.2c-0.4-0.6-0.7-1.3-1.1-2c-0.4-0.7-0.7-1.4-1.1-2.1
				s-0.9-1.3-1.5-1.8c-0.6-0.4-1.2-0.7-1.9-0.8c-0.6-0.1-1.3,0-1.9,0.2c-0.6,0.2-1.1,0.5-1.6,0.7c-0.9,0.4-1.7,0.7-2.3,1
				C290.8,234.6,290.5,234.7,290.5,234.6L290.5,234.6z M291.6,230.4c0,0-0.2,0.2-0.7,0.4c-0.6,0.4-1.3,0.7-2,1.1
				c-2.2,1.1-4.4,2.3-6.6,3.4c-2.2,1.1-4.4,2.2-6.6,3.3c-0.9,0.4-1.5,0.7-2,0.9c-0.5,0.2-0.8,0.3-0.8,0.3c0,0,0.2-0.2,0.7-0.4
				c0.6-0.4,1.3-0.7,2-1.1c2.2-1.1,4.4-2.3,6.6-3.4c2.2-1.1,4.4-2.2,6.6-3.3c0.7-0.3,1.4-0.6,2-0.9
				C291.3,230.5,291.6,230.4,291.6,230.4L291.6,230.4z M231.6,197.1c0,0.1-2.7-0.6-6-0.2c-3.3,0.4-5.8,1.7-5.8,1.6
				c0,0,0.6-0.4,1.6-0.9s2.5-0.9,4.2-1.1c1.7-0.2,3.2-0.1,4.3,0.1C231,196.8,231.6,197,231.6,197.1L231.6,197.1z"/>
			<path class="st7" d="M344.4,60c-12.6-0.2-25.3,1.2-37.6,4c-2.9,0.6-5.9,1.5-7.8,3.7c-2,2.3-2.4,5.7-2.7,8.7
				c-0.3,3.8-0.6,7.5-1,11.3c-0.5,0.9-1.1,1.8-1.8,2.7c-3,3.9-6.8,7.1-9.5,11.2c-2.7,4.1-4.2,9.5-2,13.9c1.3,2.6,3.8,4.5,5.6,6.8
				c3.1,4,4.1,9.1,5.9,13.8s5,9.5,10,10.4c2.4,0.4,4.8-0.1,7.2,0.3c3.5,0.5,6.5,2.8,9.3,5c2.8,2.2,5.9,4.5,9.4,4.8
				c3.6,0.4,7.6-2.1,7.7-5.6c-2.6,1.5-6.1,1.4-8.6-0.2c-2.1-1.4-3.4-3.6-5.2-5.3c-4.4-4.2-11.4-5.6-14.5-10.9
				c-2.4-4.2-1.5-9.4-0.4-14.1c1-4.1,1.9-8.5,0.7-12.4c0.1-0.6,0.1-1.3,0.1-1.9c0-4.2-1.6-8.6,0.3-12.3c2.6-4.9,10-5.5,12.5-10.3
				c1.5-2.8,1-6.4,2.6-9.2c1.5-2.6,4.6-3.8,7.6-4.4c2.9-0.6,6-0.9,8.6-2.4S345.6,62.8,344.4,60L344.4,60L344.4,60z"/>
			<path class="st7" d="M354,144.9c0,0,0,0.1-0.1,0.2c-0.1,0.1-0.2,0.3-0.4,0.6c-0.4,0.5-1,1.1-1.8,1.8c-1.1,0.8-2.3,1.5-3.6,1.9
				c-1.7,0.6-3.6,0.8-5.4,0.6c-2-0.2-4.2-1-6.1-2.5c-1.9-1.4-3.6-3.4-5.7-4.9c-1.1-0.8-2.3-1.4-3.6-1.5c-1.4-0.2-2.7,0.2-4,0.7
				c-1.3,0.5-2.7,1.2-4.2,1.4c-1.5,0.3-3.1-0.1-4.5-0.8c-1.4-0.7-2.6-1.6-3.8-2.5c-1.2-0.9-2.3-1.8-3.3-2.9c-1-1-1.9-2.2-2.4-3.6
				c-0.5-1.3-0.5-2.8-0.3-4.1c0.3-1.3,0.7-2.5,1.2-3.7c0.4-1.1,0.8-2.3,1.2-3.4c0.6-2.1,1.1-4.2,1.5-6.4c0.6-3.9,0.6-7.2,0.5-9.4
				c0-0.9-0.1-1.7-0.2-2.6c0-0.3,0-0.5-0.1-0.7c0-0.2,0-0.2,0-0.2c0,0,0,0.1,0,0.2c0,0.2,0,0.4,0.1,0.7c0.1,0.6,0.2,1.4,0.3,2.6
				c0.2,3.2,0.1,6.3-0.4,9.5c-0.3,2.2-0.8,4.3-1.4,6.4c-0.4,1.2-0.8,2.3-1.2,3.5c-0.4,1.2-0.9,2.4-1.2,3.7c-0.2,1.3-0.2,2.6,0.3,3.9
				c0.5,1.3,1.3,2.4,2.3,3.4c1,1,2.1,1.9,3.3,2.9c1.2,0.9,2.4,1.8,3.7,2.5c1.3,0.7,2.8,1,4.3,0.8c1.4-0.2,2.8-0.9,4.1-1.4
				c1.3-0.5,2.8-0.9,4.2-0.7c1.4,0.2,2.7,0.8,3.8,1.6c2.2,1.6,3.8,3.5,5.7,4.9c1.8,1.5,3.9,2.3,5.9,2.5c2,0.2,3.8-0.1,5.3-0.6
				c1.3-0.4,2.5-1,3.6-1.8C353.3,146,353.9,144.9,354,144.9L354,144.9L354,144.9z"/>
			<path class="st1" d="M274.9,119.8c0,0-0.2-0.3-0.6-0.9c-0.4-0.6-0.8-1.6-1.1-2.9c-0.3-1.3-0.3-3,0.1-4.9c0.5-2.1,1.4-4.1,2.7-5.9
				c1.5-1.9,3.4-3.7,5.7-5.4c2.3-1.7,4.9-3.3,7.4-5.1c2.5-1.8,5.2-4,7-6.8c1-1.4,1.6-3,2.1-4.7c0.5-1.7,0.9-3.5,1.3-5.2
				c0.4-1.8,0.9-3.6,1.6-5.2c0.7-1.7,1.8-3.2,3.1-4.3s2.9-1.9,4.5-2.5c1.6-0.5,3.2-0.8,4.8-0.9c3.2-0.3,6.2,0.1,9,0.3
				c2.8,0.2,5.4,0.4,7.8,0.1c2.1-0.2,4.2-0.8,6.1-1.8c1.7-0.9,2.9-2,3.8-3s1.3-2,1.5-2.7c0.2-0.7,0.3-1,0.3-1c0,0,0,0.4-0.2,1
				c-0.2,0.7-0.6,1.7-1.5,2.7c-0.8,1.1-2.1,2.2-3.8,3.1c-1.9,1-4,1.7-6.2,1.9c-2.4,0.3-5,0.2-7.9-0.1c-2.8-0.2-5.8-0.5-9-0.2
				c-1.6,0.1-3.2,0.4-4.7,0.9c-1.6,0.5-3.1,1.3-4.4,2.4s-2.3,2.6-3,4.2c-0.7,1.6-1.2,3.4-1.6,5.1c-0.4,1.8-0.8,3.6-1.3,5.3
				c-0.5,1.7-1.2,3.4-2.2,4.8c-1.9,2.9-4.6,5.1-7.2,6.9c-2.6,1.8-5.2,3.4-7.4,5.1c-2.3,1.7-4.2,3.4-5.7,5.3
				c-1.3,1.7-2.3,3.7-2.7,5.8c-0.4,1.8-0.4,3.5-0.1,4.8C273.8,118.6,275,119.7,274.9,119.8L274.9,119.8L274.9,119.8z"/>
			<path class="st1" d="M277.2,123.9c0,0-1-0.7-2.4-2.3c-0.7-0.8-1.5-1.9-2.1-3.4c-0.3-0.7-0.5-1.6-0.4-2.5c0.1-0.9,0.5-1.8,1.1-2.6
				c1.3-1.6,3.4-2.4,5.6-2.9c1.1-0.2,2.3-0.4,3.5-0.7c1.2-0.3,2.4-0.7,3.4-1.4c1-0.7,1.8-1.7,2.5-2.9c0.6-1.2,1.1-2.5,1.5-3.8
				c0.5-1.3,0.9-2.7,1.6-4c0.7-1.3,1.7-2.5,3-3.3c1.3-0.8,2.7-1.2,4.1-1.6c1.4-0.4,2.8-0.7,4.1-1.1c2.6-0.8,4.7-2.6,6.3-4.6
				c1.6-2,2.8-4.1,3.9-6.1c1.1-2,2.3-3.8,3.5-5.3c1.3-1.5,2.7-2.6,4.1-3.3c1.4-0.7,2.7-1,3.8-1.2c1.1-0.1,2,0.1,2.5,0.2
				c0.5,0.2,0.8,0.3,0.8,0.3c0,0-0.3-0.1-0.8-0.2c-0.5-0.1-1.4-0.2-2.5-0.1c-1.1,0.1-2.4,0.5-3.7,1.2s-2.7,1.8-4,3.3
				c-1.2,1.5-2.4,3.3-3.5,5.2c-1.1,2-2.3,4.1-3.9,6.2c-0.8,1-1.7,2-2.8,2.8c-1.1,0.9-2.3,1.5-3.7,1.9c-1.3,0.5-2.7,0.8-4.1,1.1
				c-1.4,0.4-2.8,0.8-4,1.6c-1.2,0.8-2.2,1.9-2.8,3.1c-0.7,1.2-1.1,2.6-1.6,3.9c-0.5,1.3-0.9,2.6-1.5,3.8c-0.6,1.2-1.5,2.3-2.6,3
				c-1.1,0.8-2.3,1.2-3.5,1.4s-2.4,0.5-3.5,0.7c-2.2,0.4-4.2,1.3-5.5,2.7c-0.6,0.7-0.9,1.5-1,2.4c-0.1,0.8,0.1,1.7,0.3,2.4
				c0.5,1.4,1.3,2.5,2,3.3c0.7,0.8,1.3,1.4,1.7,1.8c0.2,0.2,0.3,0.3,0.5,0.4C277.2,123.8,277.2,123.9,277.2,123.9L277.2,123.9
				L277.2,123.9z"/>
			<path class="st9" d="M374.6,72.8c0,0-0.1,0.2-0.4,0.6c-0.3,0.4-0.7,0.9-1.2,1.6c-1.4,1.7-2.9,3.3-4.5,4.9
				c-0.9,0.9-1.8,1.9-2.9,2.2c-0.6,0.2-1.2,0.2-1.7,0s-0.9-0.6-1.1-1c-0.4-0.8-0.4-1.6-0.3-2c0.1-0.5,0.2-0.7,0.2-0.7
				c0,0,0,0.3,0,0.7c0,0.4,0,1.2,0.4,1.8c0.2,0.3,0.5,0.7,0.9,0.8c0.4,0.2,0.9,0.1,1.4,0c1-0.3,1.8-1.3,2.7-2.2
				c1.5-1.6,3-3.1,4.5-4.8C373.9,73.5,374.6,72.8,374.6,72.8L374.6,72.8L374.6,72.8z"/>
			<path class="st9" d="M380.7,72.8c0,0-0.1,0.2-0.5,0.6c-0.3,0.4-0.8,0.9-1.4,1.6c-0.6,0.7-1.4,1.5-2.1,2.3
				c-0.4,0.4-0.8,0.9-1.3,1.3c-0.4,0.5-0.9,1-1.5,1.4c-0.6,0.4-1.2,0.7-1.9,0.8c-0.7,0.1-1.4-0.2-1.8-0.8c-0.2-0.3-0.3-0.6-0.3-0.9
				c0-0.3,0.1-0.6,0.3-0.8c0.3-0.5,0.6-0.8,0.9-1.2c0.5-0.7,1-1.3,1.3-1.7c0.3-0.4,0.5-0.6,0.5-0.6c0,0-0.1,0.3-0.4,0.7
				c-0.3,0.4-0.7,1-1.2,1.8c-0.2,0.4-0.5,0.8-0.8,1.2c-0.2,0.4-0.3,0.9,0,1.4c0.3,0.4,0.9,0.7,1.5,0.6c0.6,0,1.2-0.3,1.7-0.7
				s1-0.9,1.4-1.3l1.3-1.3c0.8-0.8,1.5-1.6,2.2-2.2c0.5-0.5,1-1,1.5-1.5C380.4,72.9,380.6,72.8,380.7,72.8L380.7,72.8L380.7,72.8z"
				/>
			<path class="st3" d="M463.3,315c1.4-2.9,4.2-5.1,7.4-5.7s6.6,0.6,8.9,2.9c-1.5,2.8-4.3,4.6-7.3,5.6
				C468.8,319,465,317.6,463.3,315z"/>
			<path class="st7" d="M457.7,316.4c0,0,0.9-0.4,2.3-0.7c1.4-0.4,3.4-0.7,5.6-1.1c2.2-0.4,4.2-0.6,5.7-0.8c1.5-0.2,2.4-0.2,2.4-0.2
				s-0.9,0.2-2.3,0.5c-1.6,0.3-3.5,0.6-5.7,0.9c-2.2,0.4-4.2,0.7-5.6,1C458.6,316.2,457.7,316.4,457.7,316.4L457.7,316.4
				L457.7,316.4z"/>
			<path class="st3" d="M180.5,265c3.4,2.8,5.2,7.3,4.7,11.6s-3.2,8.3-7.1,10.3C175.2,279.4,174.1,271.4,180.5,265z M191.5,270.7
				c0.3,5.6,3.6,11,8.5,13.8c4.9,2.8,11.2,3,16.2,0.5C210.6,276.3,203.1,269,191.5,270.7L191.5,270.7L191.5,270.7z"/>
			<path class="st7" d="M166.3,243.1c0,0,0.1,0.1,0.4,0.4c0.2,0.3,0.6,0.7,1,1.2c0.9,1,2.1,2.5,3.6,4.4c3.1,3.6,7.4,8.6,12.6,13.8
				c2.4,2.4,4.9,4.8,7.4,7.1c2.4,2.1,4.6,3.9,6.4,5.3c1.9,1.4,3.5,2.5,4.7,3.2c1.1,0.7,1.8,1,1.8,1c0,0-0.2,0-0.5-0.2
				c-0.3-0.1-0.8-0.3-1.4-0.7c-1.2-0.6-2.8-1.7-4.8-3.1c-1.9-1.4-4.1-3.2-6.5-5.3c-2.6-2.3-5.1-4.6-7.5-7.1
				c-4.4-4.4-8.6-9.1-12.5-13.9c-1.2-1.4-2.4-2.9-3.5-4.4c-0.4-0.5-0.7-0.9-0.9-1.2C166.4,243.3,166.3,243.2,166.3,243.1
				L166.3,243.1L166.3,243.1z"/>
			<path class="st7" d="M179.9,276.2c-0.1,0,0.2-1.1,0.4-2.9c0.2-1.8,0.4-4.3,0.1-7c-0.2-2.3-0.8-4.6-1.5-6.9
				c-0.6-1.7-1.1-2.7-1-2.8c0,0,0.2,0.2,0.4,0.7c0.2,0.5,0.6,1.1,0.9,2c0.7,1.7,1.4,4.1,1.7,6.9c0.3,2.8,0.1,5.3-0.2,7.1
				c-0.1,0.9-0.3,1.6-0.4,2.1C180,276,179.9,276.2,179.9,276.2L179.9,276.2L179.9,276.2z"/>
			<path class="st3" d="M529.1,116.1c-2-2.6-2.5-6.2-1.5-9.2s3.6-5.6,6.8-6.5c1.7,2.7,2,6,1.5,9.1
				C535.2,113.1,532.1,115.8,529.1,116.1L529.1,116.1z"/>
			<path class="st7" d="M527.5,121.6c0,0,0.1-0.9,0.5-2.3c0.4-1.4,1-3.4,1.7-5.5c0.7-2.1,1.4-4,2-5.4c0.5-1.4,0.9-2.2,1-2.2
				c0,0-0.2,0.9-0.7,2.3c-0.5,1.5-1.2,3.4-1.9,5.4c-0.6,1.8-1.2,3.6-1.8,5.4C527.8,120.8,527.6,121.7,527.5,121.6L527.5,121.6
				L527.5,121.6z"/>
			<path class="st3" d="M494.2,174.9c-1.6-6.1-0.1-12.9,4-17.6c4.1-4.8,10.5-7.4,16.8-6.7c1.1,6-0.8,12.1-3.9,17.3
				C507.3,174.1,499.9,176.7,494.2,174.9L494.2,174.9L494.2,174.9z"/>
			<path class="st7" d="M470.8,198.4c0,0,0.1-0.2,0.3-0.4c0.3-0.3,0.6-0.7,1-1.2c0.9-1,2.2-2.4,3.9-4.2c3.3-3.5,8-8.2,13.1-13.5
				c4.4-4.5,8.8-8.9,13.3-13.3c1.7-1.7,3.1-3,4.1-4c0.5-0.4,0.8-0.8,1.1-1.1c0.3-0.2,0.4-0.4,0.4-0.4c0,0-0.1,0.1-0.4,0.4
				c-0.3,0.3-0.6,0.7-1.1,1.1c-1,1-2.3,2.4-4,4.1c-3.4,3.5-8,8.2-13.2,13.4c-5.1,5.2-9.8,9.9-13.2,13.4c-1.6,1.7-3,3.1-4,4.1
				c-0.4,0.5-0.8,0.8-1.1,1.1C471,198.2,470.8,198.4,470.8,198.4L470.8,198.4L470.8,198.4z"/>
			<path class="st10" d="M494.2,174.9c-1.6-6.1-0.1-12.9,4-17.6c4.1-4.8,10.5-7.4,16.8-6.7c1.1,6-0.8,12.1-3.9,17.3
				C507.3,174.1,499.9,176.7,494.2,174.9L494.2,174.9L494.2,174.9z"/>
			<path class="st3" d="M483.4,177.3c-3.4-1.8-5.9-5.3-6.4-9.1c-0.5-3.8,1-7.8,3.9-10.4c3.2,2,5.2,5.4,6.2,8.9
				C488.4,171,486.5,175.4,483.4,177.3L483.4,177.3L483.4,177.3z"/>
			<path class="st10" d="M483.4,177.3c-3.4-1.8-5.9-5.3-6.4-9.1c-0.5-3.8,1-7.8,3.9-10.4c3.2,2,5.2,5.4,6.2,8.9
				C488.4,171,486.5,175.4,483.4,177.3L483.4,177.3L483.4,177.3z"/>
			<path class="st7" d="M484.6,184c0,0-0.1-0.2-0.2-0.7c-0.1-0.5-0.3-1.2-0.5-2c-0.3-1.7-0.7-4.1-1-6.7c-0.3-2.2-0.5-4.5-0.7-6.8
				c-0.1-1.7-0.2-2.8-0.1-2.8c0.1,0,0.2,1.1,0.4,2.8c0.2,1.8,0.5,4.2,0.8,6.8c0.3,2.6,0.6,5,0.9,6.7C484.5,183,484.7,184,484.6,184
				L484.6,184L484.6,184z"/>
			<path class="st3" d="M335.2,269c2.4-5.7,7.8-10,13.9-11.1s12.6,1,16.9,5.5C357.1,270.4,346.6,275.1,335.2,269L335.2,269
				L335.2,269z"/>
			<path class="st10" d="M335.2,269c2.4-5.7,7.8-10,13.9-11.1s12.6,1,16.9,5.5C357.1,270.4,346.6,275.1,335.2,269L335.2,269
				L335.2,269z"/>
			<path class="st7" d="M330.1,271.8c0,0,0.2-0.2,0.7-0.5c0.7-0.5,1.4-0.9,2.1-1.3c1.8-1,4.4-2.3,7.4-3.3c3-1,5.9-1.5,7.9-1.7
				c0.8-0.1,1.6-0.1,2.5-0.2c0.6,0,0.9,0,0.9,0c0,0.1-1.3,0.1-3.3,0.4c-2.7,0.4-5.3,1-7.8,1.8c-3,1-5.6,2.2-7.4,3.2
				C331.2,271.2,330.2,271.8,330.1,271.8L330.1,271.8L330.1,271.8z"/>
			<path class="st3" d="M126.7,165.9c4.3-2,9.7-1.7,13.7,0.8c4.1,2.5,6.7,7.1,6.9,11.9C138.5,177.9,130,175.3,126.7,165.9z"/>
			<path class="st10" d="M126.7,165.9c4.3-2,9.7-1.7,13.7,0.8c4.1,2.5,6.7,7.1,6.9,11.9C138.5,177.9,130,175.3,126.7,165.9z"/>
			<path class="st7" d="M122.3,164.9c0,0,0.2,0,0.7,0c0.4,0,1.1,0.1,1.9,0.3c1.6,0.3,3.7,0.9,6,1.9s4.1,2.2,5.4,3.1
				c0.6,0.5,1.1,0.9,1.5,1.2c0.3,0.3,0.5,0.5,0.5,0.5c0,0.1-0.8-0.6-2.1-1.4c-1.7-1.1-3.6-2.1-5.4-3c-1.9-0.8-3.9-1.5-5.9-2
				C123.3,165.1,122.3,164.9,122.3,164.9L122.3,164.9z"/>
			<path class="st3" d="M410.2,259.3c-0.5-4.2,1.2-8.7,4.5-11.4c3.3-2.8,7.9-3.7,12-2.5C423.7,252.6,419.1,259.1,410.2,259.3
				L410.2,259.3z"/>
			<path class="st7" d="M408.1,262.7c0,0,0.3-0.9,1-2.1c0.9-1.6,2-3.1,3.3-4.5c1.2-1.4,2.6-2.6,4.2-3.8c1.2-0.8,2-1.2,2-1.2
				c0,0.1-0.7,0.6-1.8,1.4c-1.5,1.1-2.8,2.4-4,3.8c-1.2,1.4-2.4,2.9-3.3,4.4C408.6,262,408.2,262.7,408.1,262.7L408.1,262.7
				L408.1,262.7z"/>
			<path class="st3" d="M472.4,218.2c-1.3-4.1-0.4-8.8,2.3-12.1c2.7-3.3,7.1-5.2,11.3-4.7C484.5,209.1,481.1,216.3,472.4,218.2
				L472.4,218.2L472.4,218.2z"/>
			<path class="st10" d="M472.4,218.2c-1.3-4.1-0.4-8.8,2.3-12.1c2.7-3.3,7.1-5.2,11.3-4.7C484.5,209.1,481.1,216.3,472.4,218.2
				L472.4,218.2L472.4,218.2z"/>
			<path class="st7" d="M471,221.9c0,0,0.1-0.9,0.6-2.2c0.5-1.4,1.2-3.2,2.4-5.1c1-1.6,2.1-3.1,3.4-4.5c1-1,1.7-1.6,1.7-1.6
				c0,0.1-0.6,0.7-1.5,1.8c-1.2,1.4-2.3,2.9-3.2,4.5c-1,1.6-1.8,3.2-2.5,5C471.4,221.1,471.1,222,471,221.9L471,221.9z"/>
			<path class="st3" d="M3.1,161.6c0.9-4.2,4.1-7.8,8-9.3s8.7-0.9,12.2,1.6C18.1,159.8,11.6,164.3,3.1,161.6z"/>
			<path class="st7" d="M0,164.1c0,0,0.6-0.7,1.6-1.6s2.7-2.1,4.6-3.2c1.7-0.9,3.4-1.6,5.2-2.2c1.4-0.4,2.3-0.5,2.3-0.5
				c0,0.1-0.8,0.3-2.2,0.8c-1.8,0.6-3.4,1.4-5.1,2.2c-1.6,0.9-3.2,1.9-4.6,3.1C0.7,163.6,0.1,164.2,0,164.1L0,164.1L0,164.1z"/>
			<path class="st1" d="M364.8,58.3l6.4-11.5c-3-4.8-4.6-10.3-4.7-15.9c-0.2-16.8,13.4-30.6,30.2-30.8c16.8-0.2,30.6,13.4,30.8,30.2
				c0.2,16.8-13.4,30.6-30.2,30.8c-6.8,0.1-13.4-2.1-18.7-6.2v0L364.8,58.3L364.8,58.3L364.8,58.3z"/>
			<path class="st3" d="M388.5,25.4l4,0c0,0,0-3.3,3.4-3.4c1.8,0,2.7,1.1,3.1,2c0.5,1,0.3,2.2-0.2,3.2c-0.7,1.1-2.1,2.1-4.8,1.7
				l0.1,8.9l3.9,0l0-5.2c0,0,5.5-1.5,5.4-7.5c0-5.8-5.3-7.1-7.5-7.1C394.2,17.9,388.4,18.4,388.5,25.4L388.5,25.4z M398,39.7l-4,0
				l0,3.7l4,0L398,39.7z"/>
		</g>
	</g>
</g>
</svg>
