<svg width="150" height="150" viewBox="0 0 150 150" xmlns="http://www.w3.org/2000/svg" xmlns:xlink="http://www.w3.org/1999/xlink">
    <defs>
        <filter x="-9.6%" y="-25.8%" width="119.2%" height="164.5%" filterUnits="objectBoundingBox" id="c">
            <feOffset dy="2" in="SourceAlpha" result="shadowOffsetOuter1"/>
            <feGaussianBlur stdDeviation="3" in="shadowOffsetOuter1" result="shadowBlurOuter1"/>
            <feColorMatrix values="0 0 0 0 0 0 0 0 0 0 0 0 0 0 0 0 0 0 0.1 0" in="shadowBlurOuter1"/>
        </filter>
        <filter x="-15.7%" y="-18.2%" width="131.4%" height="136.4%" filterUnits="objectBoundingBox" id="e">
            <feOffset dy="2" in="SourceAlpha" result="shadowOffsetOuter1"/>
            <feGaussianBlur stdDeviation="1" in="shadowOffsetOuter1" result="shadowBlurOuter1"/>
            <feColorMatrix values="0 0 0 0 0 0 0 0 0 0 0 0 0 0 0 0 0 0 0.0777425699 0" in="shadowBlurOuter1" result="shadowMatrixOuter1"/>
            <feMerge>
                <feMergeNode in="shadowMatrixOuter1"/>
                <feMergeNode in="SourceGraphic"/>
            </feMerge>
        </filter>
        <path d="M20 34h98a3 3 0 013 3v25a3 3 0 01-3 3H20a3 3 0 01-3-3V37a3 3 0 013-3z" id="d"/>
        <path d="M1.609 34.02L40.58 1.688 50.137.596l-3.676 9.492L8.088 42.324a2.206 2.206 0 01-3.19-.373L2.83 39.164l-1.583-2.131a2.206 2.206 0 01.363-3.013z" id="f"/>
        <circle id="a" cx="68.859" cy="68" r="68"/>
    </defs>
    <g transform="translate(6 5)" fill="none" fill-rule="evenodd">
        <g transform="translate(.14)">
            <mask id="b" fill="#fff">
                <use xlink:href="#a"/>
            </mask>
            <use fill="#EAEAEA" xlink:href="#a"/>
            <path d="M19.86 71h98a3 3 0 013 3v59a3 3 0 01-3 3h-98a3 3 0 01-3-3V74a3 3 0 013-3z" fill="#FBFBFB" mask="url(#b)"/>
            <circle fill="#E5E5E5" mask="url(#b)" cx="35.359" cy="89.5" r="6.5"/>
            <rect fill="#E5E5E5" mask="url(#b)" x="48.859" y="86" width="40" height="2" rx="1"/>
            <rect fill="#E5E5E5" mask="url(#b)" x="48.859" y="91" width="27" height="2" rx="1"/>
            <circle fill="#E5E5E5" mask="url(#b)" cx="35.359" cy="107.5" r="6.5"/>
            <rect fill="#E5E5E5" mask="url(#b)" x="48.859" y="104" width="30" height="2" rx="1"/>
            <rect fill="#E5E5E5" mask="url(#b)" x="48.859" y="109" width="37" height="2" rx="1"/>
            <circle fill="#E5E5E5" mask="url(#b)" cx="35.359" cy="125.5" r="6.5"/>
            <rect fill="#E5E5E5" mask="url(#b)" x="48.859" y="122" width="50" height="2" rx="1"/>
            <rect fill="#E5E5E5" mask="url(#b)" x="48.859" y="127" width="17" height="2" rx="1"/>
        </g>
        <use fill="#000" filter="url(#c)" xlink:href="#d"/>
        <use fill="#FBFBFB" xlink:href="#d"/>
        <circle fill="#EDEDED" cx="33" cy="50" r="9"/>
        <path stroke="#979797" stroke-width="2" stroke-linecap="round" stroke-linejoin="round" d="M29.607 47.431l4.045 4.785 10.617-9.353"/>
        <rect fill="#E5E5E5" x="49" y="47" width="30" height="2" rx="1"/>
        <rect fill="#E5E5E5" x="49" y="52" width="47" height="2" rx="1"/>
        <g filter="url(#e)" transform="rotate(-16 386.501 -261.685)">
            <mask id="g" fill="#fff">
                <use xlink:href="#f"/>
            </mask>
            <use fill="#C9C9C9" xlink:href="#f"/>
            <path fill="#AEAEAE" mask="url(#g)" d="M3.839 41.121L44.373 7.717l4.369 3.211L5.991 45.85l-2.904-3.116z"/>
            <path d="M48.614 9.889a7.72 7.72 0 100-15.442 7.72 7.72 0 000 15.442z" fill="#F7F7F7" mask="url(#g)"/>
            <path d="M49.274 3.43a2.206 2.206 0 100-4.411 2.206 2.206 0 000 4.412z" fill="#6C6C6C" mask="url(#g)"/>
        </g>
    </g>
</svg>
