<?xml version="1.0" encoding="UTF-8"?>
<svg id="Layer_2" data-name="Layer 2" xmlns="http://www.w3.org/2000/svg" viewBox="0 0 304.94 147.44">
  <defs>
    <style>
      .cls-1 {
        fill: none;
        stroke: #81cfcd;
        stroke-linecap: round;
        stroke-miterlimit: 10;
        stroke-width: 6.4px;
      }

      .cls-2 {
        fill: #81cfcd;
        stroke-width: 0px;
      }
    </style>
  </defs>
  <g id="Color">
    <g>
      <g>
        <path class="cls-1" d="M3.45,26.62c-.32-1.88-.5-4.61.53-7.48C8.99,5.18,36.84,3.24,58.76,3.2c24.82-.05,40.9,2.68,50.43,10.53,5.42,4.46,4.66,8.78,4.77,11.59"/>
        <path class="cls-1" d="M191.24,26.62c-.32-1.88-.5-4.61.53-7.48,5.01-13.96,32.87-15.9,54.79-15.95,24.82-.05,40.9,2.68,50.43,10.53,5.42,4.46,4.66,8.78,4.77,11.59"/>
      </g>
      <g>
        <path class="cls-2" d="M240.29,21.86c-7.34,0-9.1,3.7-9.63,4.3v11.58c-11.31-2.35-24.45-4.32-39.14-5.24-15.64-.96-29.72-.5-41.78.57-11.96-1.11-26.09-1.61-41.85-.57-14.42.98-27.25,3.03-38.22,5.43v-10.38c-.38-.58-1.17-5.66-9.76-5.66-8.13,0-9.8,4.71-10.14,5.1-.07,7.01.05,13.69-.02,20.7,4.76.91,9.54,1.39,14.32,2.28h50.07v18.98h8.03c.15-2.04,1.87-10.28,7.11-15.9,6.96-7.47,16.22-7.47,17.94-7.47v17.01c-7.01,0-14.2,6.96-14.2,18.88s5.05,20.08,12.9,20.08v11.41c-11.17,1.88-19.07,8.87-19.07,17.28,0,9.87,6.49,17.19,23.64,17.19s24.1-6.77,24.1-16.73-9.27-17.18-22.42-17.18v-11.97c8.23,0,13.74-5.55,13.74-19.8,0-11.82-4.53-19.53-13.55-19.53l.29-16.53c2.21.12,10.36.56,17.46,7.47,6.29,6.1,7.69,13.33,8.05,15.69h7.85v-18.69h49.88c4.87-.74,9.73-1.49,14.58-2.24v-21.04c-.43-.55-1.96-5.02-10.18-5.02ZM170.07,130.57c0,8.22-10.14,13.22-19.39,13.22-11.54,0-19.3-5.7-19.3-13.74,0-7.31,10.44-12.85,19.23-12.85,11.28,0,19.46,5.94,19.46,13.36Z"/>
        <path class="cls-2" d="M164.27,127.95h-13.92v-8.03c-8.83,0-14.34,4.81-14.34,9.86s5.33,10.23,14.19,10.23c11.24,0,14.08-6.16,14.08-12.05Z"/>
      </g>
    </g>
  </g>
</svg>