<?xml version="1.0" encoding="UTF-8"?>
<svg id="Color" xmlns="http://www.w3.org/2000/svg" viewBox="0 0 1080 1080">
  <defs>
    <style>
      .cls-1 {
        fill: #81cfcd;
      }

      .cls-2 {
        fill: none;
        stroke: #81cfcd;
        stroke-linecap: round;
        stroke-miterlimit: 10;
        stroke-width: 6.4px;
      }
    </style>
  </defs>
  <g>
    <path class="cls-2" d="M40.84,337.42c-1.07-7.8-1.67-19.16,1.77-31.1,16.78-58.08,110.09-66.15,183.51-66.34,83.15-.21,136.98,11.14,168.91,43.79,18.16,18.57,15.61,36.53,15.96,48.2"/>
    <path class="cls-2" d="M669.85,337.42c-1.07-7.8-1.67-19.16,1.77-31.1,16.78-58.08,110.09-66.15,183.51-66.34,83.15-.21,136.98,11.14,168.91,43.79,18.16,18.57,15.61,36.53,15.96,48.2"/>
  </g>
  <g>
    <path class="cls-1" d="M834.15,317.62c-24.58,0-30.47,15.39-32.25,17.89v48.17c-37.87-9.76-81.88-17.96-131.11-21.81-52.39-3.99-99.55-2.07-139.95,2.35-40.05-4.63-87.39-6.7-140.18-2.35-48.31,4.06-91.29,12.61-128.02,22.59v-43.19c-1.26-2.42-3.92-23.54-32.7-23.54-27.24,0-32.83,19.6-33.97,21.24-.23,29.15.16,56.95-.07,86.1,15.95,3.78,31.97,5.78,47.98,9.49h167.72v78.96h26.91c.52-8.48,6.28-42.78,23.81-66.13,23.33-31.07,54.34-31.07,60.08-31.07v70.76c-23.47,0-47.57,28.95-47.57,78.53s16.9,83.52,43.21,83.52v47.46c-37.41,7.84-63.86,36.91-63.86,71.9,0,41.05,21.75,71.52,79.18,71.52s80.73-28.18,80.73-69.59-31.04-71.48-75.11-71.48v-49.81c27.55,0,46.02-23.09,46.02-82.38,0-49.17-15.18-81.24-45.39-81.24l.98-68.77c7.4.5,34.71,2.35,58.47,31.07,21.06,25.37,25.76,55.44,26.97,65.28h26.28v-77.75h167.09c16.3-3.06,32.59-6.2,48.83-9.34v-87.51c-1.43-2.28-6.55-20.88-34.08-20.88ZM598.95,769.86c0,34.21-33.97,55.01-64.95,55.01-38.66,0-64.64-23.72-64.64-57.15,0-30.43,34.97-53.44,64.41-53.45,37.78,0,65.18,24.73,65.18,55.58Z"/>
    <path class="cls-1" d="M579.53,758.95h-46.63v-33.41c-29.57,0-48.04,20.02-48.04,41.01s17.84,42.54,47.52,42.54c37.66,0,47.16-25.63,47.16-50.14Z"/>
  </g>
</svg>