<?xml version="1.0" encoding="UTF-8"?>
<svg id="Layer_2" data-name="Layer 2" xmlns="http://www.w3.org/2000/svg" viewBox="0 0 778.1 431.95">
  <defs>
    <style>
      .cls-1 {
        fill: none;
        stroke: #81cfcd;
        stroke-linecap: round;
        stroke-miterlimit: 10;
        stroke-width: 6.4px;
      }

      .cls-2 {
        fill: #81cfcd;
        stroke-width: 0px;
      }
    </style>
  </defs>
  <g id="Color">
    <g>
      <g>
        <path class="cls-1" d="M3.84,72.82c-.83-5.57-1.29-13.69,1.37-22.22C18.16,9.1,90.17,3.33,146.83,3.2c64.17-.15,105.71,7.96,130.35,31.29,14.01,13.27,12.05,26.11,12.32,34.44"/>
        <path class="cls-1" d="M489.25,72.82c-.83-5.57-1.29-13.69,1.37-22.22,12.95-41.5,84.96-47.27,141.62-47.4,64.17-.15,105.71,7.96,130.35,31.29,14.01,13.27,12.05,26.11,12.32,34.44"/>
      </g>
      <g>
        <path class="cls-2" d="M616.05,58.68c-18.97,0-23.51,11-24.89,12.78v34.42c-29.23-6.98-63.19-12.83-101.18-15.58-40.43-2.85-76.83-1.48-108,1.68-30.91-3.31-67.44-4.79-108.18-1.68-37.28,2.9-70.45,9.01-98.79,16.14v-30.86c-.97-1.73-3.03-16.82-25.24-16.82-21.02,0-25.33,14-26.22,15.17-.18,20.83.13,40.69-.05,61.52,12.31,2.7,24.67,4.13,37.03,6.78h129.43v56.42h20.77c.4-6.06,4.84-30.57,18.38-47.25,18-22.2,41.93-22.2,46.36-22.2v50.56c-18.11,0-36.71,20.68-36.71,56.11s13.04,59.68,33.34,59.68v33.91c-28.87,5.6-49.28,26.38-49.28,51.38,0,29.33,16.79,51.1,61.11,51.1s62.3-20.14,62.3-49.73-23.96-51.07-57.96-51.07v-35.59c21.26,0,35.51-16.5,35.51-58.86,0-35.13-11.71-58.05-35.03-58.05l.75-49.14c5.71.36,26.79,1.68,45.12,22.2,16.25,18.13,19.88,39.62,20.81,46.64h20.28v-55.55h128.95c12.58-2.19,25.15-4.43,37.68-6.67v-62.53c-1.11-1.63-5.06-14.92-26.3-14.92ZM434.55,381.81c0,24.44-26.21,39.31-50.13,39.31-29.83,0-49.88-16.95-49.88-40.84,0-21.74,26.99-38.19,49.7-38.19,29.16,0,50.3,17.67,50.3,39.72Z"/>
        <path class="cls-2" d="M419.55,374.02h-35.99v-23.87c-22.82,0-37.07,14.3-37.07,29.3s13.77,30.4,36.67,30.4c29.06,0,36.39-18.32,36.39-35.83Z"/>
      </g>
    </g>
  </g>
</svg>